<svg width="519" height="91" viewBox="0 0 519 91" fill="none" xmlns="http://www.w3.org/2000/svg">
<path d="M55.0008 69.08H16.8408L9.52078 89H0.640781L31.2408 6.19999H40.7208L71.2008 89H62.3208L55.0008 69.08ZM52.4808 62.12L35.9208 16.76L19.3608 62.12H52.4808ZM92.962 38C95.122 33.44 98.442 29.72 102.922 26.84C107.482 23.96 112.842 22.52 119.002 22.52C125.002 22.52 130.362 23.92 135.082 26.72C139.802 29.44 143.482 33.36 146.122 38.48C148.842 43.52 150.202 49.4 150.202 56.12C150.202 62.84 148.842 68.76 146.122 73.88C143.482 79 139.762 82.96 134.962 85.76C130.242 88.56 124.922 89.96 119.002 89.96C112.762 89.96 107.362 88.56 102.802 85.76C98.322 82.88 95.042 79.16 92.962 74.6V89H84.682V0.199999H92.962V38ZM141.682 56.12C141.682 50.68 140.602 46 138.442 42.08C136.362 38.08 133.482 35.04 129.802 32.96C126.122 30.88 121.962 29.84 117.322 29.84C112.842 29.84 108.722 30.92 104.962 33.08C101.282 35.24 98.362 38.32 96.202 42.32C94.042 46.32 92.962 50.96 92.962 56.24C92.962 61.52 94.042 66.16 96.202 70.16C98.362 74.16 101.282 77.24 104.962 79.4C108.722 81.56 112.842 82.64 117.322 82.64C121.962 82.64 126.122 81.6 129.802 79.52C133.482 77.36 136.362 74.28 138.442 70.28C140.602 66.2 141.682 61.48 141.682 56.12ZM194.339 89.96C188.179 89.96 182.619 88.6 177.659 85.88C172.779 83.08 168.899 79.16 166.019 74.12C163.219 69 161.819 63.04 161.819 56.24C161.819 49.44 163.259 43.52 166.139 38.48C169.019 33.36 172.939 29.44 177.899 26.72C182.859 23.92 188.419 22.52 194.579 22.52C200.739 22.52 206.299 23.92 211.259 26.72C216.299 29.44 220.219 33.36 223.019 38.48C225.899 43.52 227.339 49.44 227.339 56.24C227.339 62.96 225.899 68.88 223.019 74C220.139 79.12 216.179 83.08 211.139 85.88C206.099 88.6 200.499 89.96 194.339 89.96ZM194.339 82.64C198.659 82.64 202.659 81.68 206.339 79.76C210.019 77.76 212.979 74.8 215.219 70.88C217.539 66.88 218.699 62 218.699 56.24C218.699 50.48 217.579 45.64 215.339 41.72C213.099 37.72 210.139 34.76 206.459 32.84C202.779 30.84 198.779 29.84 194.459 29.84C190.139 29.84 186.139 30.84 182.459 32.84C178.779 34.76 175.819 37.72 173.579 41.72C171.419 45.64 170.339 50.48 170.339 56.24C170.339 62 171.419 66.88 173.579 70.88C175.819 74.8 178.739 77.76 182.339 79.76C186.019 81.68 190.019 82.64 194.339 82.64ZM299.411 23.48V89H291.011V77.48C289.091 81.56 286.131 84.68 282.131 86.84C278.131 89 273.651 90.08 268.691 90.08C260.851 90.08 254.451 87.68 249.491 82.88C244.531 78 242.051 70.96 242.051 61.76V23.48H250.331V60.8C250.331 67.92 252.091 73.36 255.611 77.12C259.211 80.88 264.091 82.76 270.251 82.76C276.571 82.76 281.611 80.76 285.371 76.76C289.131 72.76 291.011 66.88 291.011 59.12V23.48H299.411ZM329.508 30.56V71.24C329.508 75.24 330.268 78 331.788 79.52C333.308 81.04 335.988 81.8 339.828 81.8H347.508V89H338.508C332.588 89 328.188 87.64 325.308 84.92C322.428 82.12 320.988 77.56 320.988 71.24V30.56H311.868V23.48H320.988V7.04H329.508V23.48H347.508V30.56H329.508ZM402.331 5.11999V57.92C402.331 66.24 404.291 72.4 408.211 76.4C412.211 80.4 417.651 82.4 424.531 82.4C431.411 82.4 436.771 80.44 440.611 76.52C444.531 72.52 446.491 66.32 446.491 57.92V5.11999H454.891V57.8C454.891 68.44 452.051 76.44 446.371 81.8C440.771 87.16 433.451 89.84 424.411 89.84C415.371 89.84 408.011 87.16 402.331 81.8C396.731 76.44 393.931 68.44 393.931 57.8V5.11999H402.331ZM496.187 89.96C488.667 89.96 482.507 88.24 477.707 84.8C472.987 81.28 470.347 76.52 469.787 70.52H478.427C478.827 74.2 480.547 77.2 483.587 79.52C486.707 81.76 490.867 82.88 496.067 82.88C500.627 82.88 504.187 81.8 506.747 79.64C509.387 77.48 510.707 74.8 510.707 71.6C510.707 69.36 509.987 67.52 508.547 66.08C507.107 64.64 505.267 63.52 503.027 62.72C500.867 61.84 497.907 60.92 494.147 59.96C489.267 58.68 485.307 57.4 482.267 56.12C479.227 54.84 476.627 52.96 474.467 50.48C472.387 47.92 471.347 44.52 471.347 40.28C471.347 37.08 472.307 34.12 474.227 31.4C476.147 28.68 478.867 26.52 482.387 24.92C485.907 23.32 489.907 22.52 494.387 22.52C501.427 22.52 507.107 24.32 511.427 27.92C515.747 31.44 518.067 36.32 518.387 42.56H509.987C509.747 38.72 508.227 35.64 505.427 33.32C502.707 30.92 498.947 29.72 494.147 29.72C489.907 29.72 486.467 30.72 483.827 32.72C481.187 34.72 479.867 37.2 479.867 40.16C479.867 42.72 480.627 44.84 482.147 46.52C483.747 48.12 485.707 49.4 488.027 50.36C490.347 51.24 493.467 52.24 497.387 53.36C502.107 54.64 505.867 55.88 508.667 57.08C511.467 58.28 513.867 60.04 515.867 62.36C517.867 64.68 518.907 67.76 518.987 71.6C518.987 75.12 518.027 78.28 516.107 81.08C514.187 83.8 511.507 85.96 508.067 87.56C504.627 89.16 500.667 89.96 496.187 89.96Z" fill="#00263A" fill-opacity="0.03"/>
</svg>
