<svg width="151" height="45" viewBox="0 0 151 45" fill="none" xmlns="http://www.w3.org/2000/svg">
<g clip-path="url(#clip0_36_182)">
<path d="M9.05208 44.3623C8.6972 44.3623 8.35276 44.3623 7.99788 44.352C7.26724 44.352 6.54704 44.2796 5.82684 44.166C5.15883 44.0523 4.51169 43.8353 3.9063 43.5356C3.30092 43.236 2.75816 42.8433 2.27802 42.3679C1.79789 41.9029 1.40126 41.3553 1.08813 40.7662C0.785435 40.1669 0.566244 39.5262 0.461867 38.8649C0.347053 38.1519 0.273989 37.4285 0.263551 36.7052C0.263551 36.4675 0.242676 35.6512 0.242676 35.6512V9.07344C0.242676 9.07344 0.242676 8.27776 0.263551 8.04009C0.263551 7.31674 0.336615 6.5934 0.45143 5.89072C0.566244 5.22938 0.774998 4.57837 1.07769 3.97903C1.38038 3.37968 1.77702 2.84234 2.25715 2.367C2.73728 1.89166 3.28004 1.49899 3.88543 1.18898C4.49081 0.889313 5.13795 0.672309 5.80596 0.558641C6.54704 0.444973 7.27768 0.382972 8.00831 0.372638H9.05208L141.444 0.362305H142.508C143.229 0.382972 143.949 0.444973 144.669 0.568974C145.347 0.682643 145.995 0.899646 146.61 1.19932C147.821 1.81933 148.802 2.79067 149.418 3.97903C149.721 4.57837 149.93 5.21904 150.044 5.88039C150.17 6.5934 150.232 7.32708 150.243 8.05042C150.243 8.38109 150.243 8.7221 150.243 9.07344C150.243 9.50744 150.243 9.91045 150.243 10.3341V34.4112C150.243 34.8245 150.243 35.2378 150.243 35.6512C150.243 36.0232 150.243 36.3642 150.243 36.7155C150.232 37.4285 150.159 38.1415 150.044 38.8442C149.94 39.5159 149.721 40.1566 149.418 40.7662C149.115 41.3553 148.719 41.8926 148.239 42.3576C147.769 42.8329 147.216 43.2256 146.61 43.5356C146.005 43.8456 145.347 44.0523 144.669 44.166C143.949 44.2796 143.229 44.3416 142.498 44.352C142.153 44.352 141.799 44.3623 141.454 44.3623H140.191H9.05208Z" fill="white"/>
<path d="M34.238 28.3763C33.8309 29.6783 33.2255 30.908 32.4323 32.024C31.3676 33.605 30.2508 35.1447 28.4764 35.1757C26.7542 35.217 26.1697 34.1734 24.1969 34.1734C22.2242 34.1734 21.5875 35.1447 19.9279 35.217C18.237 35.279 16.9427 33.5327 15.8468 31.9723C13.634 28.7793 11.9222 22.9719 14.2289 19.0141C15.3145 17.0921 17.3394 15.8624 19.5626 15.7901C21.2535 15.7591 22.8296 16.9164 23.8629 16.9164C24.8963 16.9164 26.8272 15.5214 28.8208 15.7281C30.7205 15.7901 32.4845 16.7304 33.5804 18.2701C31.8582 19.3138 30.7935 21.1635 30.7727 23.1682C30.7727 25.4312 32.1504 27.4773 34.2484 28.3556L34.238 28.3763ZM27.5057 13.6407C28.4764 12.4937 28.9461 11.016 28.8313 9.51766C27.3491 9.67266 25.9922 10.3753 25.0111 11.481C24.0404 12.5764 23.5498 14.0024 23.6437 15.4491C25.1468 15.4594 26.5663 14.7981 27.5057 13.6407ZM53.6938 20.1612L58.9022 34.442H56.5329L55.2177 30.5773H49.7171L48.3915 34.442H46.0639L51.2723 20.1612H53.6938ZM54.6437 28.8L52.4935 22.5379H52.4309L50.2807 28.8H54.6437ZM70.1541 29.234C70.1541 32.4683 68.4005 34.5454 65.7598 34.5454C64.3925 34.6177 63.1086 33.9047 62.4511 32.7267H62.3989V37.8831H60.2383V24.0259H62.3258V25.7619H62.3675C63.0564 24.5839 64.3403 23.8812 65.718 23.9225C68.3901 23.9225 70.1436 26.0099 70.1436 29.2443L70.1541 29.234ZM67.9308 29.234C67.9308 27.1259 66.8349 25.7412 65.1544 25.7412C63.4739 25.7412 62.3989 27.1569 62.3989 29.234C62.3989 31.311 63.5053 32.737 65.1544 32.737C66.8036 32.737 67.9308 31.3627 67.9308 29.234ZM81.7295 29.234C81.7295 32.4683 79.9759 34.5454 77.3352 34.5454C75.9679 34.6177 74.684 33.9047 74.0264 32.7267H73.9743V37.8831H71.8137V24.0259H73.9012V25.7619H73.9429C74.6318 24.5839 75.9157 23.8812 77.2934 23.9225C79.9655 23.9225 81.719 26.0099 81.719 29.2443L81.7295 29.234ZM79.5062 29.234C79.5062 27.1259 78.4103 25.7412 76.7298 25.7412C75.0493 25.7412 73.9743 27.1569 73.9743 29.234C73.9743 31.311 75.0807 32.737 76.7298 32.737C78.379 32.737 79.5062 31.3627 79.5062 29.234ZM94.0459 26.3716L92.4594 25.9892C90.6015 25.5346 89.8395 24.9352 89.8395 23.9329C89.8395 22.6619 91.0294 21.7938 92.7725 21.7938C94.5156 21.7938 95.7055 22.6515 95.8308 24.0775H98.0123C97.9392 21.6078 95.8516 19.9235 92.8038 19.9235C89.756 19.9235 87.5537 21.6182 87.5537 24.0775C87.5537 26.0719 88.7853 27.2913 91.4365 27.9319L93.3049 28.3763C95.1732 28.831 95.9665 29.4923 95.9665 30.6083C95.9665 31.8897 94.6618 32.8197 92.8352 32.8197C91.0086 32.8197 89.5473 31.8897 89.3907 30.474H87.1779C87.3136 33.0574 89.4742 34.69 92.6786 34.69C96.1022 34.69 98.2523 33.016 98.2523 30.3396C98.2523 28.2523 97.0207 27.0743 94.0668 26.3819L94.0459 26.3716ZM102.897 21.5562H100.726V24.0259H99.1917V25.7206H100.726V31.6933C100.726 33.7084 101.561 34.504 103.69 34.504C104.097 34.504 104.494 34.4834 104.891 34.4007V32.7163C104.651 32.7473 104.421 32.7577 104.181 32.768C103.304 32.768 102.897 32.3547 102.897 31.4557V25.7102H104.901V24.0155H102.897V21.5458V21.5562ZM116.038 29.234C116.038 32.52 114.107 34.566 111.049 34.566C107.991 34.566 106.06 32.52 106.06 29.234C106.06 25.9479 108.012 23.9019 111.049 23.9019C114.086 23.9019 116.038 25.9582 116.038 29.234ZM113.836 29.234C113.836 26.9813 112.792 25.6586 111.049 25.6586C109.306 25.6586 108.262 26.9916 108.262 29.234C108.262 31.4763 109.306 32.8093 111.049 32.8093C112.792 32.8093 113.836 31.497 113.836 29.234ZM119.921 25.8032H119.869V24.0259H117.813V34.442H119.973V28.2626C119.963 28.1489 119.952 28.0456 119.963 27.9319C120.015 26.7436 121.027 25.8136 122.228 25.8652C122.551 25.8652 122.885 25.8962 123.198 25.9892V23.9845C122.958 23.9329 122.708 23.9019 122.457 23.9019C121.267 23.8605 120.213 24.6459 119.931 25.7826L119.921 25.8032ZM125.839 29.7713V29.8953C125.703 31.3833 126.82 32.706 128.323 32.8403C128.438 32.8403 128.553 32.8507 128.668 32.8403C129.712 32.9333 130.703 32.3443 131.1 31.373H133.146C132.853 33.264 130.995 34.5557 128.616 34.5557C125.557 34.5557 123.658 32.5303 123.658 29.265C123.658 25.9996 125.568 23.8812 128.522 23.8812C131.475 23.8812 133.26 25.8652 133.26 29.017V29.7506H125.829L125.839 29.7713ZM125.839 28.2729H131.1C131.173 26.8883 130.108 25.7102 128.709 25.6379C128.647 25.6379 128.584 25.6379 128.511 25.6379C127.039 25.6379 125.839 26.8056 125.829 28.2626C125.829 28.2626 125.829 28.2729 125.829 28.2833L125.839 28.2729ZM50.0093 16.2654H47.5043V9.40399H50.0093C51.7002 9.27999 53.172 10.5407 53.2868 12.2147C53.2972 12.411 53.2868 12.6177 53.2659 12.814C53.2659 15.0047 52.0656 16.2654 49.9989 16.2654H50.0093ZM49.8841 15.2941C51.0844 15.3664 52.1177 14.4571 52.1908 13.2687C52.1908 13.124 52.1908 12.969 52.1699 12.8244C52.3369 11.636 51.5019 10.551 50.3016 10.3857C50.1659 10.365 50.0198 10.365 49.8841 10.365H48.5794V15.2837H49.8841V15.2941ZM59.4137 13.2067C59.4241 13.3617 59.4241 13.5167 59.4137 13.6717C59.5494 15.0254 58.5474 16.2241 57.1905 16.3481C55.8231 16.4824 54.6124 15.4904 54.4871 14.1471C54.4662 13.9921 54.4662 13.8267 54.4871 13.6717C54.3618 12.318 55.3534 11.1194 56.7208 10.9954C58.0881 10.8713 59.2989 11.853 59.4241 13.2067H59.4137ZM58.349 13.6717C58.349 12.5454 57.8376 11.8944 56.9504 11.8944C56.0632 11.8944 55.5517 12.5557 55.5517 13.6717C55.5517 14.7877 56.0527 15.4594 56.9504 15.4594C57.848 15.4594 58.349 14.8084 58.349 13.6717ZM62.6598 16.2654L63.7349 12.4524H63.8184L64.9039 16.2654H65.979L67.4194 11.0884H66.3861L65.4571 15.0461H65.3736L64.2985 11.0884H63.3069L62.2319 15.0461H62.1588L61.2194 11.0884H60.1756L61.616 16.2654H62.6807H62.6598ZM72.0328 16.2654H73.0662V12.907C73.0871 12.783 73.0871 12.659 73.0766 12.535C73.0036 11.605 72.1894 10.9127 71.25 10.985C70.582 10.9333 69.9557 11.3054 69.6844 11.9047H69.6113V11.078H68.6197V16.2551H69.6531V13.2274C69.6531 13.1654 69.6531 13.1034 69.6531 13.0517C69.6844 12.4007 70.248 11.8944 70.9056 11.915C71.6675 11.915 72.0328 12.3284 72.0328 13.1654V16.2654ZM75.7382 9.06299H74.7049V16.2654H75.7382V9.06299ZM82.1052 13.2067C82.1157 13.3617 82.1157 13.5167 82.1052 13.6717C82.2409 15.0254 81.2389 16.2241 79.882 16.3481C78.5251 16.4721 77.3039 15.4904 77.1786 14.1471C77.1682 13.9921 77.1682 13.8267 77.1786 13.6717C77.0534 12.318 78.045 11.1194 79.4123 10.9954C80.7796 10.8713 81.9904 11.853 82.1157 13.2067H82.1052ZM81.0406 13.6717C81.0406 12.5454 80.5291 11.8944 79.6419 11.8944C78.7547 11.8944 78.2433 12.5557 78.2433 13.6717C78.2433 14.7877 78.7443 15.4594 79.6419 15.4594C80.5396 15.4594 81.0406 14.8084 81.0406 13.6717ZM86.583 16.2654V15.5421H86.4995C86.1655 16.0691 85.5601 16.3791 84.9234 16.3584C84.0571 16.4514 83.2742 15.8211 83.1907 14.9634C83.1907 14.9117 83.1907 14.8601 83.1907 14.8084C83.1907 13.8784 83.8901 13.3411 85.1321 13.2584L86.5517 13.1757V12.7314C86.5517 12.1837 86.1864 11.8737 85.4766 11.8737C84.9025 11.8737 84.5059 12.0804 84.3911 12.4524H83.3891C83.4934 11.5637 84.3389 10.9954 85.5288 10.9954C86.8439 10.9954 87.585 11.6464 87.585 12.7314V16.2654H86.5934H86.583ZM86.5517 13.9301L85.2783 14.0127C84.5581 14.0644 84.2345 14.3021 84.2345 14.7567C84.2345 15.2114 84.6416 15.4904 85.2052 15.4904C85.8837 15.5628 86.489 15.0667 86.5517 14.3951C86.5517 14.3847 86.5517 14.3641 86.5517 14.3537V13.9197V13.9301ZM88.9419 13.6821C88.9419 12.0494 89.7874 11.0057 91.1129 11.0057C91.781 10.9747 92.4072 11.326 92.7203 11.915H92.7934V9.07332H93.8267V16.2758H92.8352V15.4594H92.7517C92.4177 16.0381 91.781 16.3894 91.1129 16.3584C89.7769 16.3584 88.9419 15.3251 88.9419 13.6821ZM90.0065 13.6821C90.0065 14.7774 90.5284 15.4388 91.4052 15.4388C92.282 15.4388 92.8143 14.7671 92.8143 13.6821C92.8143 12.597 92.2715 11.9254 91.4052 11.9254C90.5389 11.9254 90.0065 12.5867 90.0065 13.6821ZM100.81 16.3584C99.4422 16.4928 98.2314 15.5008 98.1062 14.1574C98.0957 14.0024 98.0957 13.8371 98.1062 13.6821C97.9809 12.3284 98.9725 11.1297 100.34 11.0057C101.707 10.8817 102.918 11.8634 103.043 13.2171C103.054 13.3721 103.054 13.5271 103.043 13.6821C103.179 15.0357 102.177 16.2344 100.82 16.3584H100.81ZM100.569 15.4594C101.467 15.4594 101.968 14.8084 101.968 13.6717C101.968 12.535 101.457 11.8944 100.569 11.8944C99.6823 11.8944 99.1708 12.5557 99.1708 13.6717C99.1708 14.7877 99.6718 15.4594 100.569 15.4594ZM106.707 11.9254C107.469 11.9254 107.834 12.3387 107.834 13.1757V16.2758H108.867V12.9174C108.888 12.7934 108.888 12.6694 108.878 12.5454C108.805 11.6154 107.991 10.923 107.051 10.9954C106.383 10.9437 105.757 11.3157 105.486 11.915H105.413V11.0884H104.421V16.2654H105.454V13.2377C105.454 13.1757 105.454 13.1137 105.454 13.062C105.486 12.411 106.049 11.9047 106.707 11.9254ZM113.669 14.9014C113.669 15.9038 114.128 16.2964 115.276 16.2964C115.464 16.2964 115.652 16.2758 115.84 16.2448V15.3974C115.704 15.4078 115.579 15.4181 115.443 15.4181C114.932 15.4181 114.702 15.1804 114.702 14.6327V11.9667H115.84V11.109H114.702V9.79667H113.669V11.109H112.834V11.9667H113.669V14.8911V14.9014ZM118.282 13.2481C118.282 13.1757 118.282 13.1137 118.282 13.0414C118.334 12.38 118.929 11.884 119.597 11.9357C120.328 11.9357 120.714 12.3594 120.714 13.1861V16.2758H121.748V12.9277C121.758 12.8244 121.768 12.7107 121.758 12.6074C121.706 11.667 120.892 10.9437 119.942 10.9954C119.263 10.9437 118.627 11.3157 118.345 11.9254H118.261V9.07332H117.238V16.2758H118.272V13.2481H118.282ZM123.063 14.0851C123.063 13.9611 123.063 13.8267 123.084 13.7027C122.906 12.3904 123.835 11.1917 125.15 11.016C125.265 11.0057 125.38 10.9954 125.495 10.9954C126.946 10.9954 127.833 11.977 127.833 13.6097V13.9714H124.138V14.0334C124.075 14.7877 124.639 15.4491 125.401 15.5111C125.442 15.5111 125.484 15.5111 125.536 15.5111C126.037 15.5731 126.538 15.3251 126.779 14.8807H127.77C127.478 15.8624 126.528 16.4928 125.505 16.3791C124.19 16.4101 123.104 15.3871 123.063 14.0851ZM124.138 13.2067H126.779C126.831 12.5144 126.309 11.915 125.609 11.8634C125.568 11.8634 125.526 11.8634 125.484 11.8634C124.743 11.8634 124.138 12.442 124.127 13.1757C124.127 13.186 124.127 13.1964 124.127 13.2067H124.138Z" fill="#00263A"/>
</g>
<defs>
<clipPath id="clip0_36_182">
<rect width="150" height="44" fill="white" transform="translate(0.25293 0.362305)"/>
</clipPath>
</defs>
</svg>
