<svg width="29" height="18" viewBox="0 0 29 18" fill="none" xmlns="http://www.w3.org/2000/svg">
<g clip-path="url(#clip0_4_356)">
<path d="M27.4221 7.33613C25.8113 5.30672 23.7404 4.87815 22.5293 4.81512H22.3234C22.057 4.81512 21.7906 4.81512 21.5363 4.84033C21.5363 4.84033 21.5363 4.84033 21.5241 4.84033C19.756 4.97899 18.3269 5.60924 17.2733 6.71849C15.2992 8.78571 15.2266 11.8992 15.2266 12.1639V18C15.2266 4.81512 28.512 9.13865 28.512 9.13865C28.185 8.5084 27.8217 7.91597 27.4342 7.33613H27.4221Z" fill="#4F9D5D"/>
<path d="M22.3235 2.87395H23.474C20.9186 1.05882 17.8304 0 14.4999 0C11.1695 0 8.08124 1.05882 5.52588 2.87395H6.6764C9.23176 2.87395 11.2785 3.66807 12.7681 5.23109C13.5916 6.10084 14.1366 7.08403 14.4999 8.04202C14.8632 7.09664 15.4082 6.10084 16.2318 5.23109C17.7214 3.66807 19.7681 2.87395 22.3235 2.87395Z" fill="#7FCE7A"/>
<path d="M7.48799 4.84033C7.48799 4.84033 7.48799 4.84033 7.47587 4.84033C7.22155 4.81512 6.95511 4.81512 6.68868 4.81512H6.4828C5.27172 4.87815 3.20079 5.30672 1.59006 7.33613C1.19041 7.90336 0.827086 8.5084 0.512207 9.13865C0.512207 9.13865 13.7977 4.81512 13.7977 18V12.1639C13.7977 11.8992 13.725 8.78571 11.751 6.71849C10.6973 5.62185 9.26826 4.9916 7.5001 4.84033H7.48799Z" fill="#4F9D5D"/>
</g>
<defs>
<clipPath id="clip0_4_356">
<rect width="28" height="18" fill="white" transform="translate(0.5)"/>
</clipPath>
</defs>
</svg>
