<svg width="541" height="72" viewBox="0 0 541 72" fill="none" xmlns="http://www.w3.org/2000/svg">
<path d="M0.8 36C0.8 29.1333 2.3 23 5.3 17.6C8.3 12.1333 12.4 7.9 17.6 4.9C22.8 1.83333 28.6 0.299998 35 0.299998C42.8 0.299998 49.4667 2.16666 55 5.9C60.6 9.56666 64.6667 14.7667 67.2 21.5H59C57 16.7667 53.9333 13.0667 49.8 10.4C45.7333 7.73333 40.8 6.4 35 6.4C29.8667 6.4 25.2333 7.6 21.1 10C17.0333 12.4 13.8333 15.8667 11.5 20.4C9.16667 24.8667 8 30.0667 8 36C8 41.9333 9.16667 47.1333 11.5 51.6C13.8333 56.0667 17.0333 59.5 21.1 61.9C25.2333 64.3 29.8667 65.5 35 65.5C40.8 65.5 45.7333 64.2 49.8 61.6C53.9333 58.9333 57 55.2667 59 50.6H67.2C64.6667 57.2667 60.6 62.4333 55 66.1C49.4 69.7667 42.7333 71.6 35 71.6C28.6 71.6 22.8 70.1 17.6 67.1C12.4 64.0333 8.3 59.8 5.3 54.4C2.3 49 0.8 42.8667 0.8 36ZM105.048 71.8C99.9151 71.8 95.2818 70.6667 91.1484 68.4C87.0818 66.0667 83.8484 62.8 81.4484 58.6C79.1151 54.3333 77.9484 49.3667 77.9484 43.7C77.9484 38.0333 79.1484 33.1 81.5484 28.9C83.9484 24.6333 87.2151 21.3667 91.3484 19.1C95.4818 16.7667 100.115 15.6 105.248 15.6C110.382 15.6 115.015 16.7667 119.148 19.1C123.348 21.3667 126.615 24.6333 128.948 28.9C131.348 33.1 132.548 38.0333 132.548 43.7C132.548 49.3 131.348 54.2333 128.948 58.5C126.548 62.7667 123.248 66.0667 119.048 68.4C114.848 70.6667 110.182 71.8 105.048 71.8ZM105.048 65.7C108.648 65.7 111.982 64.9 115.048 63.3C118.115 61.6333 120.582 59.1667 122.448 55.9C124.382 52.5667 125.348 48.5 125.348 43.7C125.348 38.9 124.415 34.8667 122.548 31.6C120.682 28.2667 118.215 25.8 115.148 24.2C112.082 22.5333 108.748 21.7 105.148 21.7C101.548 21.7 98.2151 22.5333 95.1484 24.2C92.0818 25.8 89.6151 28.2667 87.7484 31.6C85.9484 34.8667 85.0484 38.9 85.0484 43.7C85.0484 48.5 85.9484 52.5667 87.7484 55.9C89.6151 59.1667 92.0484 61.6333 95.0484 63.3C98.1151 64.9 101.448 65.7 105.048 65.7ZM170.909 15.4C177.442 15.4 182.775 17.4333 186.909 21.5C191.042 25.5 193.109 31.3333 193.109 39V71H186.209V39.8C186.209 33.8667 184.709 29.3333 181.709 26.2C178.775 23.0667 174.742 21.5 169.609 21.5C164.342 21.5 160.142 23.1667 157.009 26.5C153.875 29.8333 152.309 34.7333 152.309 41.2V71H145.309V16.4H152.309V25.7C154.042 22.3667 156.542 19.8333 159.809 18.1C163.075 16.3 166.775 15.4 170.909 15.4ZM217.69 22.3V56.2C217.69 59.5333 218.323 61.8333 219.59 63.1C220.857 64.3667 223.09 65 226.29 65H232.69V71H225.19C220.257 71 216.59 69.8667 214.19 67.6C211.79 65.2667 210.59 61.4667 210.59 56.2V22.3H202.99V16.4H210.59V2.7H217.69V16.4H232.69V22.3H217.69ZM241.034 43.6C241.034 38 242.134 33.1 244.334 28.9C246.601 24.6333 249.701 21.3667 253.634 19.1C257.634 16.7667 262.134 15.6 267.134 15.6C272.334 15.6 276.801 16.8 280.534 19.2C284.334 21.6 287.068 24.6667 288.734 28.4V16.4H295.734V71H288.734V58.9C287.001 62.6333 284.234 65.7333 280.434 68.2C276.701 70.6 272.234 71.8 267.034 71.8C262.101 71.8 257.634 70.6333 253.634 68.3C249.701 65.9667 246.601 62.6667 244.334 58.4C242.134 54.1333 241.034 49.2 241.034 43.6ZM288.734 43.7C288.734 39.3 287.834 35.4333 286.034 32.1C284.234 28.7667 281.768 26.2 278.634 24.4C275.568 22.6 272.168 21.7 268.434 21.7C264.568 21.7 261.101 22.5667 258.034 24.3C254.968 26.0333 252.534 28.5667 250.734 31.9C249.001 35.1667 248.134 39.0667 248.134 43.6C248.134 48.0667 249.001 52 250.734 55.4C252.534 58.7333 254.968 61.3 258.034 63.1C261.101 64.8333 264.568 65.7 268.434 65.7C272.168 65.7 275.568 64.8 278.634 63C281.768 61.2 284.234 58.6333 286.034 55.3C287.834 51.9667 288.734 48.1 288.734 43.7ZM308.515 43.7C308.515 38.0333 309.648 33.1 311.915 28.9C314.182 24.6333 317.315 21.3667 321.315 19.1C325.315 16.7667 329.882 15.6 335.015 15.6C341.748 15.6 347.282 17.2667 351.615 20.6C356.015 23.9333 358.848 28.4667 360.115 34.2H352.615C351.682 30.2667 349.648 27.2 346.515 25C343.448 22.7333 339.615 21.6 335.015 21.6C331.348 21.6 328.048 22.4333 325.115 24.1C322.182 25.7667 319.848 28.2667 318.115 31.6C316.448 34.8667 315.615 38.9 315.615 43.7C315.615 48.5 316.448 52.5667 318.115 55.9C319.848 59.2333 322.182 61.7333 325.115 63.4C328.048 65.0667 331.348 65.9 335.015 65.9C339.615 65.9 343.448 64.8 346.515 62.6C349.648 60.3333 351.682 57.2 352.615 53.2H360.115C358.848 58.8 356.015 63.3 351.615 66.7C347.215 70.1 341.682 71.8 335.015 71.8C329.882 71.8 325.315 70.6667 321.315 68.4C317.315 66.0667 314.182 62.8 311.915 58.6C309.648 54.3333 308.515 49.3667 308.515 43.7ZM382.143 22.3V56.2C382.143 59.5333 382.776 61.8333 384.043 63.1C385.31 64.3667 387.543 65 390.743 65H397.143V71H389.643C384.71 71 381.043 69.8667 378.643 67.6C376.243 65.2667 375.043 61.4667 375.043 56.2V22.3H367.443V16.4H375.043V2.7H382.143V16.4H397.143V22.3H382.143ZM442.829 1.09999V45.1C442.829 52.0333 444.462 57.1667 447.729 60.5C451.062 63.8333 455.596 65.5 461.329 65.5C467.062 65.5 471.529 63.8667 474.729 60.6C477.996 57.2667 479.629 52.1 479.629 45.1V1.09999H486.629V45C486.629 53.8667 484.262 60.5333 479.529 65C474.862 69.4667 468.762 71.7 461.229 71.7C453.696 71.7 447.562 69.4667 442.829 65C438.162 60.5333 435.829 53.8667 435.829 45V1.09999H442.829ZM521.042 71.8C514.776 71.8 509.642 70.3667 505.642 67.5C501.709 64.5667 499.509 60.6 499.042 55.6H506.242C506.576 58.6667 508.009 61.1667 510.542 63.1C513.142 64.9667 516.609 65.9 520.942 65.9C524.742 65.9 527.709 65 529.842 63.2C532.042 61.4 533.142 59.1667 533.142 56.5C533.142 54.6333 532.542 53.1 531.342 51.9C530.142 50.7 528.609 49.7667 526.742 49.1C524.942 48.3667 522.476 47.6 519.342 46.8C515.276 45.7333 511.976 44.6667 509.442 43.6C506.909 42.5333 504.742 40.9667 502.942 38.9C501.209 36.7667 500.342 33.9333 500.342 30.4C500.342 27.7333 501.142 25.2667 502.742 23C504.342 20.7333 506.609 18.9333 509.542 17.6C512.476 16.2667 515.809 15.6 519.542 15.6C525.409 15.6 530.142 17.1 533.742 20.1C537.342 23.0333 539.276 27.1 539.542 32.3H532.542C532.342 29.1 531.076 26.5333 528.742 24.6C526.476 22.6 523.342 21.6 519.342 21.6C515.809 21.6 512.942 22.4333 510.742 24.1C508.542 25.7667 507.442 27.8333 507.442 30.3C507.442 32.4333 508.076 34.2 509.342 35.6C510.676 36.9333 512.309 38 514.242 38.8C516.176 39.5333 518.776 40.3667 522.042 41.3C525.976 42.3667 529.109 43.4 531.442 44.4C533.776 45.4 535.776 46.8667 537.442 48.8C539.109 50.7333 539.976 53.3 540.042 56.5C540.042 59.4333 539.242 62.0667 537.642 64.4C536.042 66.6667 533.809 68.4667 530.942 69.8C528.076 71.1333 524.776 71.8 521.042 71.8Z" fill="#00263A" fill-opacity="0.05"/>
</svg>
