<svg width="665" height="272" viewBox="0 0 665 272" fill="none" xmlns="http://www.w3.org/2000/svg">
<path d="M22.265 4.59499C29.6117 4.59499 35.9133 5.925 41.17 8.585C46.4267 11.245 50.4483 15.0767 53.235 20.08C56.0217 25.0833 57.415 31.0367 57.415 37.94C57.415 44.78 56.0217 50.7017 53.235 55.705C50.4483 60.645 46.4267 64.445 41.17 67.105C35.9133 69.7017 29.6117 71 22.265 71H2.6V4.59499H22.265ZM22.265 65.49C31.5117 65.49 38.5417 63.0833 43.355 58.27C48.2317 53.3933 50.67 46.6167 50.67 37.94C50.67 29.2 48.2317 22.3917 43.355 17.515C38.5417 12.575 31.5117 10.105 22.265 10.105H9.25V65.49H22.265ZM92.3802 71.76C87.5035 71.76 83.1019 70.6833 79.1752 68.53C75.3119 66.3133 72.2402 63.21 69.9602 59.22C67.7435 55.1667 66.6352 50.4483 66.6352 45.065C66.6352 39.6817 67.7752 34.995 70.0552 31.005C72.3352 26.9517 75.4385 23.8483 79.3652 21.695C83.2919 19.4783 87.6935 18.37 92.5702 18.37C97.4469 18.37 101.849 19.4783 105.775 21.695C109.765 23.8483 112.869 26.9517 115.085 31.005C117.365 34.995 118.505 39.6817 118.505 45.065C118.505 50.385 117.365 55.0717 115.085 59.125C112.805 63.1783 109.67 66.3133 105.68 68.53C101.69 70.6833 97.2569 71.76 92.3802 71.76ZM92.3802 65.965C95.8002 65.965 98.9669 65.205 101.88 63.685C104.794 62.1017 107.137 59.7583 108.91 56.655C110.747 53.4883 111.665 49.625 111.665 45.065C111.665 40.505 110.779 36.6733 109.005 33.57C107.232 30.4033 104.889 28.06 101.975 26.54C99.0619 24.9567 95.8952 24.165 92.4752 24.165C89.0552 24.165 85.8885 24.9567 82.9752 26.54C80.0619 28.06 77.7185 30.4033 75.9452 33.57C74.2352 36.6733 73.3802 40.505 73.3802 45.065C73.3802 49.625 74.2352 53.4883 75.9452 56.655C77.7185 59.7583 80.0302 62.1017 82.8802 63.685C85.7935 65.205 88.9602 65.965 92.3802 65.965ZM199.027 19.13L182.782 71H176.132L161.787 27.49L147.442 71H140.697L124.452 19.13H131.197L144.117 64.255L158.652 19.13H165.302L179.647 64.35L192.472 19.13H199.027ZM232.413 18.18C238.62 18.18 243.686 20.1117 247.613 23.975C251.54 27.775 253.503 33.3167 253.503 40.6V71H246.948V41.36C246.948 35.7233 245.523 31.4167 242.673 28.44C239.886 25.4633 236.055 23.975 231.178 23.975C226.175 23.975 222.185 25.5583 219.208 28.725C216.231 31.8917 214.743 36.5467 214.743 42.69V71H208.093V19.13H214.743V27.965C216.39 24.7983 218.765 22.3917 221.868 20.745C224.971 19.035 228.486 18.18 232.413 18.18ZM274.86 0.699999V71H268.21V0.699999H274.86ZM312.624 71.76C307.748 71.76 303.346 70.6833 299.419 68.53C295.556 66.3133 292.484 63.21 290.204 59.22C287.988 55.1667 286.879 50.4483 286.879 45.065C286.879 39.6817 288.019 34.995 290.299 31.005C292.579 26.9517 295.683 23.8483 299.609 21.695C303.536 19.4783 307.938 18.37 312.814 18.37C317.691 18.37 322.093 19.4783 326.019 21.695C330.009 23.8483 333.113 26.9517 335.329 31.005C337.609 34.995 338.749 39.6817 338.749 45.065C338.749 50.385 337.609 55.0717 335.329 59.125C333.049 63.1783 329.914 66.3133 325.924 68.53C321.934 70.6833 317.501 71.76 312.624 71.76ZM312.624 65.965C316.044 65.965 319.211 65.205 322.124 63.685C325.038 62.1017 327.381 59.7583 329.154 56.655C330.991 53.4883 331.909 49.625 331.909 45.065C331.909 40.505 331.023 36.6733 329.249 33.57C327.476 30.4033 325.133 28.06 322.219 26.54C319.306 24.9567 316.139 24.165 312.719 24.165C309.299 24.165 306.133 24.9567 303.219 26.54C300.306 28.06 297.963 30.4033 296.189 33.57C294.479 36.6733 293.624 40.505 293.624 45.065C293.624 49.625 294.479 53.4883 296.189 56.655C297.963 59.7583 300.274 62.1017 303.124 63.685C306.038 65.205 309.204 65.965 312.624 65.965ZM347.831 44.97C347.831 39.65 348.876 34.995 350.966 31.005C353.12 26.9517 356.065 23.8483 359.801 21.695C363.601 19.4783 367.876 18.37 372.626 18.37C377.566 18.37 381.81 19.51 385.356 21.79C388.966 24.07 391.563 26.9833 393.146 30.53V19.13H399.796V71H393.146V59.505C391.5 63.0517 388.871 65.9967 385.261 68.34C381.715 70.62 377.471 71.76 372.531 71.76C367.845 71.76 363.601 70.6517 359.801 68.435C356.065 66.2183 353.12 63.0833 350.966 59.03C348.876 54.9767 347.831 50.29 347.831 44.97ZM393.146 45.065C393.146 40.885 392.291 37.2117 390.581 34.045C388.871 30.8783 386.528 28.44 383.551 26.73C380.638 25.02 377.408 24.165 373.861 24.165C370.188 24.165 366.895 24.9883 363.981 26.635C361.068 28.2817 358.756 30.6883 357.046 33.855C355.4 36.9583 354.576 40.6633 354.576 44.97C354.576 49.2133 355.4 52.95 357.046 56.18C358.756 59.3467 361.068 61.785 363.981 63.495C366.895 65.1417 370.188 65.965 373.861 65.965C377.408 65.965 380.638 65.11 383.551 63.4C386.528 61.69 388.871 59.2517 390.581 56.085C392.291 52.9183 393.146 49.245 393.146 45.065ZM411.938 44.97C411.938 39.65 413.015 34.995 415.168 31.005C417.321 26.9517 420.266 23.8483 424.003 21.695C427.803 19.4783 432.078 18.37 436.828 18.37C441.388 18.37 445.505 19.4783 449.178 21.695C452.851 23.9117 455.543 26.7933 457.253 30.34V0.699999H463.903V71H457.253V59.41C455.67 63.02 453.073 65.9967 449.463 68.34C445.853 70.62 441.61 71.76 436.733 71.76C431.983 71.76 427.708 70.6517 423.908 68.435C420.171 66.2183 417.226 63.0833 415.073 59.03C412.983 54.9767 411.938 50.29 411.938 44.97ZM457.253 45.065C457.253 40.885 456.398 37.2117 454.688 34.045C452.978 30.8783 450.635 28.44 447.658 26.73C444.745 25.02 441.515 24.165 437.968 24.165C434.295 24.165 431.001 24.9883 428.088 26.635C425.175 28.2817 422.863 30.6883 421.153 33.855C419.506 36.9583 418.683 40.6633 418.683 44.97C418.683 49.2133 419.506 52.95 421.153 56.18C422.863 59.3467 425.175 61.785 428.088 63.495C431.001 65.1417 434.295 65.965 437.968 65.965C441.515 65.965 444.745 65.11 447.658 63.4C450.635 61.69 452.978 59.2517 454.688 56.085C456.398 52.9183 457.253 49.245 457.253 45.065ZM534.984 71.665C528.84 71.665 523.267 70.24 518.264 67.39C513.26 64.4767 509.302 60.455 506.389 55.325C503.539 50.1317 502.114 44.2733 502.114 37.75C502.114 31.2267 503.539 25.4 506.389 20.27C509.302 15.0767 513.26 11.055 518.264 8.205C523.267 5.29167 528.84 3.835 534.984 3.835C541.19 3.835 546.795 5.29167 551.799 8.205C556.802 11.055 560.729 15.0767 563.579 20.27C566.429 25.4 567.854 31.2267 567.854 37.75C567.854 44.2733 566.429 50.1317 563.579 55.325C560.729 60.455 556.802 64.4767 551.799 67.39C546.795 70.24 541.19 71.665 534.984 71.665ZM534.984 65.87C539.924 65.87 544.357 64.73 548.284 62.45C552.21 60.17 555.314 56.9083 557.594 52.665C559.874 48.3583 561.014 43.3867 561.014 37.75C561.014 32.1133 559.874 27.1733 557.594 22.93C555.314 18.6867 552.21 15.425 548.284 13.145C544.357 10.865 539.924 9.725 534.984 9.725C530.044 9.725 525.61 10.865 521.684 13.145C517.757 15.425 514.654 18.6867 512.374 22.93C510.094 27.1733 508.954 32.1133 508.954 37.75C508.954 43.3867 510.094 48.3583 512.374 52.665C514.654 56.9083 517.757 60.17 521.684 62.45C525.61 64.73 530.044 65.87 534.984 65.87ZM624.957 19.13V71H618.307V61.88C616.787 65.11 614.444 67.58 611.277 69.29C608.11 71 604.564 71.855 600.637 71.855C594.43 71.855 589.364 69.955 585.437 66.155C581.51 62.2917 579.547 56.7183 579.547 49.435V19.13H586.102V48.675C586.102 54.3117 587.495 58.6183 590.282 61.595C593.132 64.5717 596.995 66.06 601.872 66.06C606.875 66.06 610.865 64.4767 613.842 61.31C616.819 58.1433 618.307 53.4883 618.307 47.345V19.13H624.957ZM646.789 28.345C648.246 25.115 650.462 22.6133 653.439 20.84C656.479 19.0667 660.184 18.18 664.554 18.18V25.115H662.749C657.936 25.115 654.072 26.4133 651.159 29.01C648.246 31.6067 646.789 35.945 646.789 42.025V71H640.139V19.13H646.789V28.345ZM67.485 105.45V171H60.835V118.655L37.465 171H32.62L9.25 118.845V171H2.6V105.45H9.63L34.995 162.26L60.36 105.45H67.485ZM105.276 171.76C100.399 171.76 95.9974 170.683 92.0707 168.53C88.2074 166.313 85.1357 163.21 82.8557 159.22C80.639 155.167 79.5307 150.448 79.5307 145.065C79.5307 139.682 80.6707 134.995 82.9507 131.005C85.2307 126.952 88.334 123.848 92.2607 121.695C96.1874 119.478 100.589 118.37 105.466 118.37C110.342 118.37 114.744 119.478 118.671 121.695C122.661 123.848 125.764 126.952 127.981 131.005C130.261 134.995 131.401 139.682 131.401 145.065C131.401 150.385 130.261 155.072 127.981 159.125C125.701 163.178 122.566 166.313 118.576 168.53C114.586 170.683 110.152 171.76 105.276 171.76ZM105.276 165.965C108.696 165.965 111.862 165.205 114.776 163.685C117.689 162.102 120.032 159.758 121.806 156.655C123.642 153.488 124.561 149.625 124.561 145.065C124.561 140.505 123.674 136.673 121.901 133.57C120.127 130.403 117.784 128.06 114.871 126.54C111.957 124.957 108.791 124.165 105.371 124.165C101.951 124.165 98.784 124.957 95.8707 126.54C92.9574 128.06 90.614 130.403 88.8407 133.57C87.1307 136.673 86.2757 140.505 86.2757 145.065C86.2757 149.625 87.1307 153.488 88.8407 156.655C90.614 159.758 92.9257 162.102 95.7757 163.685C98.689 165.205 101.856 165.965 105.276 165.965ZM150.078 130.625C151.788 127.015 154.416 124.07 157.963 121.79C161.573 119.51 165.816 118.37 170.693 118.37C175.443 118.37 179.686 119.478 183.423 121.695C187.16 123.848 190.073 126.952 192.163 131.005C194.316 134.995 195.393 139.65 195.393 144.97C195.393 150.29 194.316 154.977 192.163 159.03C190.073 163.083 187.128 166.218 183.328 168.435C179.591 170.652 175.38 171.76 170.693 171.76C165.753 171.76 161.478 170.652 157.868 168.435C154.321 166.155 151.725 163.21 150.078 159.6V171H143.523V100.7H150.078V130.625ZM188.648 144.97C188.648 140.663 187.793 136.958 186.083 133.855C184.436 130.688 182.156 128.282 179.243 126.635C176.33 124.988 173.036 124.165 169.363 124.165C165.816 124.165 162.555 125.02 159.578 126.73C156.665 128.44 154.353 130.878 152.643 134.045C150.933 137.212 150.078 140.885 150.078 145.065C150.078 149.245 150.933 152.918 152.643 156.085C154.353 159.252 156.665 161.69 159.578 163.4C162.555 165.11 165.816 165.965 169.363 165.965C173.036 165.965 176.33 165.142 179.243 163.495C182.156 161.785 184.436 159.347 186.083 156.18C187.793 152.95 188.648 149.213 188.648 144.97ZM210.954 109.345C209.624 109.345 208.484 108.87 207.534 107.92C206.584 106.97 206.109 105.798 206.109 104.405C206.109 103.012 206.584 101.872 207.534 100.985C208.484 100.035 209.624 99.56 210.954 99.56C212.284 99.56 213.424 100.035 214.374 100.985C215.324 101.872 215.799 103.012 215.799 104.405C215.799 105.798 215.324 106.97 214.374 107.92C213.424 108.87 212.284 109.345 210.954 109.345ZM214.279 119.13V171H207.629V119.13H214.279ZM235.988 100.7V171H229.338V100.7H235.988ZM297.977 142.405C297.977 144.685 297.914 146.427 297.787 147.63H254.752C254.942 151.557 255.892 154.913 257.602 157.7C259.312 160.487 261.561 162.608 264.347 164.065C267.134 165.458 270.174 166.155 273.467 166.155C277.774 166.155 281.384 165.11 284.297 163.02C287.274 160.93 289.237 158.112 290.187 154.565H297.217C295.951 159.632 293.227 163.78 289.047 167.01C284.931 170.177 279.737 171.76 273.467 171.76C268.591 171.76 264.221 170.683 260.357 168.53C256.494 166.313 253.454 163.21 251.237 159.22C249.084 155.167 248.007 150.448 248.007 145.065C248.007 139.682 249.084 134.963 251.237 130.91C253.391 126.857 256.399 123.753 260.262 121.6C264.126 119.447 268.527 118.37 273.467 118.37C278.407 118.37 282.714 119.447 286.387 121.6C290.124 123.753 292.974 126.667 294.937 130.34C296.964 133.95 297.977 137.972 297.977 142.405ZM291.232 142.215C291.296 138.352 290.504 135.058 288.857 132.335C287.274 129.612 285.089 127.553 282.302 126.16C279.516 124.767 276.476 124.07 273.182 124.07C268.242 124.07 264.031 125.653 260.547 128.82C257.064 131.987 255.132 136.452 254.752 142.215H291.232ZM374.688 155.23H344.478L338.683 171H331.653L355.878 105.45H363.383L387.513 171H380.483L374.688 155.23ZM372.693 149.72L359.583 113.81L346.473 149.72H372.693ZM404.741 130.53C406.388 127.047 408.984 124.165 412.531 121.885C416.141 119.542 420.416 118.37 425.356 118.37C430.043 118.37 434.254 119.478 437.991 121.695C441.791 123.848 444.736 126.952 446.826 131.005C448.979 134.995 450.056 139.65 450.056 144.97C450.056 150.29 448.979 154.977 446.826 159.03C444.736 163.083 441.791 166.218 437.991 168.435C434.254 170.652 430.043 171.76 425.356 171.76C420.479 171.76 416.236 170.62 412.626 168.34C409.016 165.997 406.388 163.083 404.741 159.6V195.51H398.186V119.13H404.741V130.53ZM443.311 144.97C443.311 140.663 442.456 136.958 440.746 133.855C439.099 130.688 436.819 128.282 433.906 126.635C430.993 124.988 427.699 124.165 424.026 124.165C420.479 124.165 417.218 125.02 414.241 126.73C411.328 128.44 409.016 130.878 407.306 134.045C405.596 137.212 404.741 140.885 404.741 145.065C404.741 149.245 405.596 152.918 407.306 156.085C409.016 159.252 411.328 161.69 414.241 163.4C417.218 165.11 420.479 165.965 424.026 165.965C427.699 165.965 430.993 165.142 433.906 163.495C436.819 161.785 439.099 159.347 440.746 156.18C442.456 152.95 443.311 149.213 443.311 144.97ZM468.847 130.53C470.494 127.047 473.091 124.165 476.637 121.885C480.247 119.542 484.522 118.37 489.462 118.37C494.149 118.37 498.361 119.478 502.097 121.695C505.897 123.848 508.842 126.952 510.932 131.005C513.086 134.995 514.162 139.65 514.162 144.97C514.162 150.29 513.086 154.977 510.932 159.03C508.842 163.083 505.897 166.218 502.097 168.435C498.361 170.652 494.149 171.76 489.462 171.76C484.586 171.76 480.342 170.62 476.732 168.34C473.122 165.997 470.494 163.083 468.847 159.6V195.51H462.292V119.13H468.847V130.53ZM507.417 144.97C507.417 140.663 506.562 136.958 504.852 133.855C503.206 130.688 500.926 128.282 498.012 126.635C495.099 124.988 491.806 124.165 488.132 124.165C484.586 124.165 481.324 125.02 478.347 126.73C475.434 128.44 473.122 130.878 471.412 134.045C469.702 137.212 468.847 140.885 468.847 145.065C468.847 149.245 469.702 152.918 471.412 156.085C473.122 159.252 475.434 161.69 478.347 163.4C481.324 165.11 484.586 165.965 488.132 165.965C491.806 165.965 495.099 165.142 498.012 163.495C500.926 161.785 503.206 159.347 504.852 156.18C506.562 152.95 507.417 149.213 507.417 144.97Z" fill="#00263A" fill-opacity="0.05"/>
<path d="M60.55 271H44.305L17.135 229.865V271H0.89V204.31H17.135L44.305 245.635V204.31H60.55V271ZM96.4555 271.76C91.2622 271.76 86.5755 270.652 82.3955 268.435C78.2789 266.218 75.0172 263.052 72.6105 258.935C70.2672 254.818 69.0955 250.005 69.0955 244.495C69.0955 239.048 70.2989 234.267 72.7055 230.15C75.1122 225.97 78.4055 222.772 82.5855 220.555C86.7655 218.338 91.4522 217.23 96.6455 217.23C101.839 217.23 106.526 218.338 110.706 220.555C114.886 222.772 118.179 225.97 120.586 230.15C122.992 234.267 124.196 239.048 124.196 244.495C124.196 249.942 122.961 254.755 120.491 258.935C118.084 263.052 114.759 266.218 110.516 268.435C106.336 270.652 101.649 271.76 96.4555 271.76ZM96.4555 257.7C99.5589 257.7 102.187 256.56 104.341 254.28C106.557 252 107.666 248.738 107.666 244.495C107.666 240.252 106.589 236.99 104.436 234.71C102.346 232.43 99.7489 231.29 96.6455 231.29C93.4789 231.29 90.8505 232.43 88.7605 234.71C86.6705 236.927 85.6255 240.188 85.6255 244.495C85.6255 248.738 86.6389 252 88.6655 254.28C90.7555 256.56 93.3522 257.7 96.4555 257.7ZM208.909 217.99L194.564 271H176.609L168.249 236.61L159.604 271H141.744L127.304 217.99H143.549L151.054 255.895L159.984 217.99H177.179L186.204 255.705L193.614 217.99H208.909ZM236.479 201.935L234.579 247.44H220.804L218.904 201.935H236.479ZM227.929 271.76C225.079 271.76 222.736 270.937 220.899 269.29C219.126 267.58 218.239 265.49 218.239 263.02C218.239 260.487 219.126 258.365 220.899 256.655C222.736 254.945 225.079 254.09 227.929 254.09C230.716 254.09 232.996 254.945 234.769 256.655C236.606 258.365 237.524 260.487 237.524 263.02C237.524 265.49 236.606 267.58 234.769 269.29C232.996 270.937 230.716 271.76 227.929 271.76Z" fill="#137054" fill-opacity="0.05"/>
</svg>
