<svg width="455" height="200" viewBox="0 0 455 200" fill="none" xmlns="http://www.w3.org/2000/svg">
<path d="M14.655 3.565C19.6817 3.565 23.9933 4.475 27.59 6.295C31.1867 8.115 33.9383 10.7367 35.845 14.16C37.7517 17.5833 38.705 21.6567 38.705 26.38C38.705 31.06 37.7517 35.1117 35.845 38.535C33.9383 41.915 31.1867 44.515 27.59 46.335C23.9933 48.1117 19.6817 49 14.655 49H1.2V3.565H14.655ZM14.655 45.23C20.9817 45.23 25.7917 43.5833 29.085 40.29C32.4217 36.9533 34.09 32.3167 34.09 26.38C34.09 20.4 32.4217 15.7417 29.085 12.405C25.7917 9.025 20.9817 7.335 14.655 7.335H5.75V45.23H14.655ZM62.6286 49.52C59.2919 49.52 56.2802 48.7833 53.5936 47.31C50.9502 45.7933 48.8486 43.67 47.2886 40.94C45.7719 38.1667 45.0136 34.9383 45.0136 31.255C45.0136 27.5717 45.7936 24.365 47.3536 21.635C48.9136 18.8617 51.0369 16.7383 53.7236 15.265C56.4102 13.7483 59.4219 12.99 62.7586 12.99C66.0952 12.99 69.1069 13.7483 71.7936 15.265C74.5236 16.7383 76.6469 18.8617 78.1636 21.635C79.7236 24.365 80.5036 27.5717 80.5036 31.255C80.5036 34.895 79.7236 38.1017 78.1636 40.875C76.6036 43.6483 74.4586 45.7933 71.7286 47.31C68.9986 48.7833 65.9652 49.52 62.6286 49.52ZM62.6286 45.555C64.9686 45.555 67.1352 45.035 69.1286 43.995C71.1219 42.9117 72.7252 41.3083 73.9386 39.185C75.1952 37.0183 75.8236 34.375 75.8236 31.255C75.8236 28.135 75.2169 25.5133 74.0036 23.39C72.7902 21.2233 71.1869 19.62 69.1936 18.58C67.2002 17.4967 65.0336 16.955 62.6936 16.955C60.3536 16.955 58.1869 17.4967 56.1936 18.58C54.2002 19.62 52.5969 21.2233 51.3836 23.39C50.2136 25.5133 49.6286 28.135 49.6286 31.255C49.6286 34.375 50.2136 37.0183 51.3836 39.185C52.5969 41.3083 54.1786 42.9117 56.1286 43.995C58.1219 45.035 60.2886 45.555 62.6286 45.555ZM135.598 13.51L124.483 49H119.933L110.118 19.23L100.303 49H95.6877L84.5727 13.51H89.1877L98.0277 44.385L107.973 13.51H112.523L122.338 44.45L131.113 13.51H135.598ZM158.441 12.86C162.687 12.86 166.154 14.1817 168.841 16.825C171.527 19.425 172.871 23.2167 172.871 28.2V49H168.386V28.72C168.386 24.8633 167.411 21.9167 165.461 19.88C163.554 17.8433 160.932 16.825 157.596 16.825C154.172 16.825 151.442 17.9083 149.406 20.075C147.369 22.2417 146.351 25.4267 146.351 29.63V49H141.801V13.51H146.351V19.555C147.477 17.3883 149.102 15.7417 151.226 14.615C153.349 13.445 155.754 12.86 158.441 12.86ZM187.483 0.899999V49H182.933V0.899999H187.483ZM213.322 49.52C209.985 49.52 206.974 48.7833 204.287 47.31C201.644 45.7933 199.542 43.67 197.982 40.94C196.465 38.1667 195.707 34.9383 195.707 31.255C195.707 27.5717 196.487 24.365 198.047 21.635C199.607 18.8617 201.73 16.7383 204.417 15.265C207.104 13.7483 210.115 12.99 213.452 12.99C216.789 12.99 219.8 13.7483 222.487 15.265C225.217 16.7383 227.34 18.8617 228.857 21.635C230.417 24.365 231.197 27.5717 231.197 31.255C231.197 34.895 230.417 38.1017 228.857 40.875C227.297 43.6483 225.152 45.7933 222.422 47.31C219.692 48.7833 216.659 49.52 213.322 49.52ZM213.322 45.555C215.662 45.555 217.829 45.035 219.822 43.995C221.815 42.9117 223.419 41.3083 224.632 39.185C225.889 37.0183 226.517 34.375 226.517 31.255C226.517 28.135 225.91 25.5133 224.697 23.39C223.484 21.2233 221.88 19.62 219.887 18.58C217.894 17.4967 215.727 16.955 213.387 16.955C211.047 16.955 208.88 17.4967 206.887 18.58C204.894 19.62 203.29 21.2233 202.077 23.39C200.907 25.5133 200.322 28.135 200.322 31.255C200.322 34.375 200.907 37.0183 202.077 39.185C203.29 41.3083 204.872 42.9117 206.822 43.995C208.815 45.035 210.982 45.555 213.322 45.555ZM237.411 31.19C237.411 27.55 238.126 24.365 239.556 21.635C241.029 18.8617 243.044 16.7383 245.601 15.265C248.201 13.7483 251.126 12.99 254.376 12.99C257.756 12.99 260.659 13.77 263.086 15.33C265.556 16.89 267.333 18.8833 268.416 21.31V13.51H272.966V49H268.416V41.135C267.289 43.5617 265.491 45.5767 263.021 47.18C260.594 48.74 257.691 49.52 254.311 49.52C251.104 49.52 248.201 48.7617 245.601 47.245C243.044 45.7283 241.029 43.5833 239.556 40.81C238.126 38.0367 237.411 34.83 237.411 31.19ZM268.416 31.255C268.416 28.395 267.831 25.8817 266.661 23.715C265.491 21.5483 263.888 19.88 261.851 18.71C259.858 17.54 257.648 16.955 255.221 16.955C252.708 16.955 250.454 17.5183 248.461 18.645C246.468 19.7717 244.886 21.4183 243.716 23.585C242.589 25.7083 242.026 28.2433 242.026 31.19C242.026 34.0933 242.589 36.65 243.716 38.86C244.886 41.0267 246.468 42.695 248.461 43.865C250.454 44.9917 252.708 45.555 255.221 45.555C257.648 45.555 259.858 44.97 261.851 43.8C263.888 42.63 265.491 40.9617 266.661 38.795C267.831 36.6283 268.416 34.115 268.416 31.255ZM281.273 31.19C281.273 27.55 282.01 24.365 283.483 21.635C284.957 18.8617 286.972 16.7383 289.528 15.265C292.128 13.7483 295.053 12.99 298.303 12.99C301.423 12.99 304.24 13.7483 306.753 15.265C309.267 16.7817 311.108 18.7533 312.278 21.18V0.899999H316.828V49H312.278V41.07C311.195 43.54 309.418 45.5767 306.948 47.18C304.478 48.74 301.575 49.52 298.238 49.52C294.988 49.52 292.063 48.7617 289.463 47.245C286.907 45.7283 284.892 43.5833 283.418 40.81C281.988 38.0367 281.273 34.83 281.273 31.19ZM312.278 31.255C312.278 28.395 311.693 25.8817 310.523 23.715C309.353 21.5483 307.75 19.88 305.713 18.71C303.72 17.54 301.51 16.955 299.083 16.955C296.57 16.955 294.317 17.5183 292.323 18.645C290.33 19.7717 288.748 21.4183 287.578 23.585C286.452 25.7083 285.888 28.2433 285.888 31.19C285.888 34.0933 286.452 36.65 287.578 38.86C288.748 41.0267 290.33 42.695 292.323 43.865C294.317 44.9917 296.57 45.555 299.083 45.555C301.51 45.555 303.72 44.97 305.713 43.8C307.75 42.63 309.353 40.9617 310.523 38.795C311.693 36.6283 312.278 34.115 312.278 31.255ZM365.463 49.455C361.259 49.455 357.446 48.48 354.023 46.53C350.599 44.5367 347.891 41.785 345.898 38.275C343.948 34.7217 342.973 30.7133 342.973 26.25C342.973 21.7867 343.948 17.8 345.898 14.29C347.891 10.7367 350.599 7.985 354.023 6.035C357.446 4.04167 361.259 3.045 365.463 3.045C369.709 3.045 373.544 4.04167 376.968 6.035C380.391 7.985 383.078 10.7367 385.028 14.29C386.978 17.8 387.953 21.7867 387.953 26.25C387.953 30.7133 386.978 34.7217 385.028 38.275C383.078 41.785 380.391 44.5367 376.968 46.53C373.544 48.48 369.709 49.455 365.463 49.455ZM365.463 45.49C368.843 45.49 371.876 44.71 374.563 43.15C377.249 41.59 379.373 39.3583 380.933 36.455C382.493 33.5083 383.273 30.1067 383.273 26.25C383.273 22.3933 382.493 19.0133 380.933 16.11C379.373 13.2067 377.249 10.975 374.563 9.415C371.876 7.855 368.843 7.075 365.463 7.075C362.083 7.075 359.049 7.855 356.363 9.415C353.676 10.975 351.553 13.2067 349.993 16.11C348.433 19.0133 347.653 22.3933 347.653 26.25C347.653 30.1067 348.433 33.5083 349.993 36.455C351.553 39.3583 353.676 41.59 356.363 43.15C359.049 44.71 362.083 45.49 365.463 45.49ZM427.023 13.51V49H422.473V42.76C421.433 44.97 419.83 46.66 417.663 47.83C415.496 49 413.07 49.585 410.383 49.585C406.136 49.585 402.67 48.285 399.983 45.685C397.296 43.0417 395.953 39.2283 395.953 34.245V13.51H400.438V33.725C400.438 37.5817 401.391 40.5283 403.298 42.565C405.248 44.6017 407.891 45.62 411.228 45.62C414.651 45.62 417.381 44.5367 419.418 42.37C421.455 40.2033 422.473 37.0183 422.473 32.815V13.51H427.023ZM441.961 19.815C442.958 17.605 444.474 15.8933 446.511 14.68C448.591 13.4667 451.126 12.86 454.116 12.86V17.605H452.881C449.588 17.605 446.944 18.4933 444.951 20.27C442.958 22.0467 441.961 25.015 441.961 29.175V49H437.411V13.51H441.961V19.815ZM45.595 79.15V124H41.045V88.185L25.055 124H21.74L5.75 88.315V124H1.2V79.15H6.01L23.365 118.02L40.72 79.15H45.595ZM71.4518 124.52C68.1151 124.52 65.1035 123.783 62.4168 122.31C59.7735 120.793 57.6718 118.67 56.1118 115.94C54.5951 113.167 53.8368 109.938 53.8368 106.255C53.8368 102.572 54.6168 99.365 56.1768 96.635C57.7368 93.8617 59.8601 91.7383 62.5468 90.265C65.2335 88.7483 68.2451 87.99 71.5818 87.99C74.9185 87.99 77.9301 88.7483 80.6168 90.265C83.3468 91.7383 85.4701 93.8617 86.9868 96.635C88.5468 99.365 89.3268 102.572 89.3268 106.255C89.3268 109.895 88.5468 113.102 86.9868 115.875C85.4268 118.648 83.2818 120.793 80.5518 122.31C77.8218 123.783 74.7885 124.52 71.4518 124.52ZM71.4518 120.555C73.7918 120.555 75.9585 120.035 77.9518 118.995C79.9451 117.912 81.5485 116.308 82.7618 114.185C84.0185 112.018 84.6468 109.375 84.6468 106.255C84.6468 103.135 84.0401 100.513 82.8268 98.39C81.6135 96.2233 80.0101 94.62 78.0168 93.58C76.0235 92.4967 73.8568 91.955 71.5168 91.955C69.1768 91.955 67.0101 92.4967 65.0168 93.58C63.0235 94.62 61.4201 96.2233 60.2068 98.39C59.0368 100.513 58.4518 103.135 58.4518 106.255C58.4518 109.375 59.0368 112.018 60.2068 114.185C61.4201 116.308 63.0018 117.912 64.9518 118.995C66.9451 120.035 69.1118 120.555 71.4518 120.555ZM102.106 96.375C103.276 93.905 105.074 91.89 107.501 90.33C109.971 88.77 112.874 87.99 116.211 87.99C119.461 87.99 122.364 88.7483 124.921 90.265C127.478 91.7383 129.471 93.8617 130.901 96.635C132.374 99.365 133.111 102.55 133.111 106.19C133.111 109.83 132.374 113.037 130.901 115.81C129.471 118.583 127.456 120.728 124.856 122.245C122.299 123.762 119.418 124.52 116.211 124.52C112.831 124.52 109.906 123.762 107.436 122.245C105.009 120.685 103.233 118.67 102.106 116.2V124H97.6209V75.9H102.106V96.375ZM128.496 106.19C128.496 103.243 127.911 100.708 126.741 98.585C125.614 96.4183 124.054 94.7717 122.061 93.645C120.068 92.5183 117.814 91.955 115.301 91.955C112.874 91.955 110.643 92.54 108.606 93.71C106.613 94.88 105.031 96.5483 103.861 98.715C102.691 100.882 102.106 103.395 102.106 106.255C102.106 109.115 102.691 111.628 103.861 113.795C105.031 115.962 106.613 117.63 108.606 118.8C110.643 119.97 112.874 120.555 115.301 120.555C117.814 120.555 120.068 119.992 122.061 118.865C124.054 117.695 125.614 116.027 126.741 113.86C127.911 111.65 128.496 109.093 128.496 106.19ZM143.758 81.815C142.848 81.815 142.068 81.49 141.418 80.84C140.768 80.19 140.443 79.3883 140.443 78.435C140.443 77.4817 140.768 76.7017 141.418 76.095C142.068 75.445 142.848 75.12 143.758 75.12C144.668 75.12 145.448 75.445 146.098 76.095C146.748 76.7017 147.073 77.4817 147.073 78.435C147.073 79.3883 146.748 80.19 146.098 80.84C145.448 81.49 144.668 81.815 143.758 81.815ZM146.033 88.51V124H141.483V88.51H146.033ZM160.887 75.9V124H156.337V75.9H160.887ZM203.3 104.435C203.3 105.995 203.257 107.187 203.17 108.01H173.725C173.855 110.697 174.505 112.993 175.675 114.9C176.845 116.807 178.384 118.258 180.29 119.255C182.197 120.208 184.277 120.685 186.53 120.685C189.477 120.685 191.947 119.97 193.94 118.54C195.977 117.11 197.32 115.182 197.97 112.755H202.78C201.914 116.222 200.05 119.06 197.19 121.27C194.374 123.437 190.82 124.52 186.53 124.52C183.194 124.52 180.204 123.783 177.56 122.31C174.917 120.793 172.837 118.67 171.32 115.94C169.847 113.167 169.11 109.938 169.11 106.255C169.11 102.572 169.847 99.3433 171.32 96.57C172.794 93.7967 174.852 91.6733 177.495 90.2C180.139 88.7267 183.15 87.99 186.53 87.99C189.91 87.99 192.857 88.7267 195.37 90.2C197.927 91.6733 199.877 93.6667 201.22 96.18C202.607 98.65 203.3 101.402 203.3 104.435ZM198.685 104.305C198.729 101.662 198.187 99.4083 197.06 97.545C195.977 95.6817 194.482 94.2733 192.575 93.32C190.669 92.3667 188.589 91.89 186.335 91.89C182.955 91.89 180.074 92.9733 177.69 95.14C175.307 97.3067 173.985 100.362 173.725 104.305H198.685ZM255.787 113.21H235.117L231.152 124H226.342L242.917 79.15H248.052L264.562 124H259.752L255.787 113.21ZM254.422 109.44L245.452 84.87L236.482 109.44H254.422ZM276.349 96.31C277.476 93.9267 279.252 91.955 281.679 90.395C284.149 88.7917 287.074 87.99 290.454 87.99C293.661 87.99 296.542 88.7483 299.099 90.265C301.699 91.7383 303.714 93.8617 305.144 96.635C306.617 99.365 307.354 102.55 307.354 106.19C307.354 109.83 306.617 113.037 305.144 115.81C303.714 118.583 301.699 120.728 299.099 122.245C296.542 123.762 293.661 124.52 290.454 124.52C287.117 124.52 284.214 123.74 281.744 122.18C279.274 120.577 277.476 118.583 276.349 116.2V140.77H271.864V88.51H276.349V96.31ZM302.739 106.19C302.739 103.243 302.154 100.708 300.984 98.585C299.857 96.4183 298.297 94.7717 296.304 93.645C294.311 92.5183 292.057 91.955 289.544 91.955C287.117 91.955 284.886 92.54 282.849 93.71C280.856 94.88 279.274 96.5483 278.104 98.715C276.934 100.882 276.349 103.395 276.349 106.255C276.349 109.115 276.934 111.628 278.104 113.795C279.274 115.962 280.856 117.63 282.849 118.8C284.886 119.97 287.117 120.555 289.544 120.555C292.057 120.555 294.311 119.992 296.304 118.865C298.297 117.695 299.857 116.027 300.984 113.86C302.154 111.65 302.739 109.093 302.739 106.19ZM320.211 96.31C321.338 93.9267 323.115 91.955 325.541 90.395C328.011 88.7917 330.936 87.99 334.316 87.99C337.523 87.99 340.405 88.7483 342.961 90.265C345.561 91.7383 347.576 93.8617 349.006 96.635C350.48 99.365 351.216 102.55 351.216 106.19C351.216 109.83 350.48 113.037 349.006 115.81C347.576 118.583 345.561 120.728 342.961 122.245C340.405 123.762 337.523 124.52 334.316 124.52C330.98 124.52 328.076 123.74 325.606 122.18C323.136 120.577 321.338 118.583 320.211 116.2V140.77H315.726V88.51H320.211V96.31ZM346.601 106.19C346.601 103.243 346.016 100.708 344.846 98.585C343.72 96.4183 342.16 94.7717 340.166 93.645C338.173 92.5183 335.92 91.955 333.406 91.955C330.98 91.955 328.748 92.54 326.711 93.71C324.718 94.88 323.136 96.5483 321.966 98.715C320.796 100.882 320.211 103.395 320.211 106.255C320.211 109.115 320.796 111.628 321.966 113.795C323.136 115.962 324.718 117.63 326.711 118.8C328.748 119.97 330.98 120.555 333.406 120.555C335.92 120.555 338.173 119.992 340.166 118.865C342.16 117.695 343.72 116.027 344.846 113.86C346.016 111.65 346.601 109.093 346.601 106.19Z" fill="#00263A"/>
<path d="M40.85 199H29.735L11.145 170.855V199H0.0300002V153.37H11.145L29.735 181.645V153.37H40.85V199ZM65.417 199.52C61.8636 199.52 58.657 198.762 55.797 197.245C52.9803 195.728 50.7486 193.562 49.102 190.745C47.4986 187.928 46.697 184.635 46.697 180.865C46.697 177.138 47.5203 173.867 49.167 171.05C50.8136 168.19 53.067 166.002 55.927 164.485C58.787 162.968 61.9936 162.21 65.547 162.21C69.1003 162.21 72.307 162.968 75.167 164.485C78.027 166.002 80.2803 168.19 81.927 171.05C83.5736 173.867 84.397 177.138 84.397 180.865C84.397 184.592 83.552 187.885 81.862 190.745C80.2153 193.562 77.9403 195.728 75.037 197.245C72.177 198.762 68.9703 199.52 65.417 199.52ZM65.417 189.9C67.5403 189.9 69.3386 189.12 70.812 187.56C72.3286 186 73.087 183.768 73.087 180.865C73.087 177.962 72.3503 175.73 70.877 174.17C69.447 172.61 67.6703 171.83 65.547 171.83C63.3803 171.83 61.582 172.61 60.152 174.17C58.722 175.687 58.007 177.918 58.007 180.865C58.007 183.768 58.7003 186 60.087 187.56C61.517 189.12 63.2936 189.9 65.417 189.9ZM142.359 162.73L132.544 199H120.259L114.539 175.47L108.624 199H96.4037L86.5237 162.73H97.6387L102.774 188.665L108.884 162.73H120.649L126.824 188.535L131.894 162.73H142.359ZM161.222 151.745L159.922 182.88H150.497L149.197 151.745H161.222ZM155.372 199.52C153.422 199.52 151.819 198.957 150.562 197.83C149.349 196.66 148.742 195.23 148.742 193.54C148.742 191.807 149.349 190.355 150.562 189.185C151.819 188.015 153.422 187.43 155.372 187.43C157.279 187.43 158.839 188.015 160.052 189.185C161.309 190.355 161.937 191.807 161.937 193.54C161.937 195.23 161.309 196.66 160.052 197.83C158.839 198.957 157.279 199.52 155.372 199.52Z" fill="#137054"/>
</svg>
