<svg width="45" height="45" viewBox="0 0 45 45" fill="none" xmlns="http://www.w3.org/2000/svg">
<path d="M22.4016 0.362305C10.1655 0.362305 0.25293 10.3362 0.25293 22.6377C0.25293 34.9392 10.1655 44.9233 22.4016 44.9233C34.6376 44.9233 44.5401 34.9494 44.5401 22.6377C44.5401 10.326 34.6275 0.362305 22.4016 0.362305ZM28.0022 14.3584H27.6673C26.8557 14.3584 26.0541 14.338 25.2526 14.3687C24.1467 14.4095 23.3249 14.828 23.2843 16.2164C23.264 17.2271 23.2437 19.5649 23.2437 19.5649C23.2437 19.5649 25.8411 19.5751 26.9673 19.5649H27.8601C27.6572 21.1779 27.4543 22.7296 27.2514 24.2915H23.2843V36.1132H18.4142V24.2813H14.4269V19.5649H18.4345V19.2178C18.4345 18.2684 18.4142 17.319 18.4345 16.3798C18.4548 15.7775 18.4751 15.1649 18.5867 14.5626C18.8302 13.1334 19.4897 11.9186 20.6869 11.0508C21.7319 10.2954 22.9292 9.98912 24.1873 9.95849C25.0192 9.93808 25.8411 9.97891 26.6629 10.0197C27.1195 10.0402 27.5659 10.1014 28.0022 10.1423V14.3584Z" fill="white"/>
</svg>
