<svg width="1270" height="97" viewBox="0 0 1270 97" fill="none" xmlns="http://www.w3.org/2000/svg">
<path d="M36.2629 5.59499V11.105H7.00293V35.9H31.7029V41.41H7.00293V72H0.35293V5.59499H36.2629ZM53.8535 29.345C55.3102 26.115 57.5268 23.6133 60.5035 21.84C63.5435 20.0667 67.2485 19.18 71.6185 19.18V26.115H69.8135C65.0002 26.115 61.1369 27.4133 58.2235 30.01C55.3102 32.6067 53.8535 36.945 53.8535 43.025V72H47.2035V20.13H53.8535V29.345ZM128.552 43.405C128.552 45.685 128.489 47.4267 128.362 48.63H85.3275C85.5175 52.5567 86.4675 55.9133 88.1775 58.7C89.8875 61.4867 92.1358 63.6083 94.9225 65.065C97.7091 66.4583 100.749 67.155 104.042 67.155C108.349 67.155 111.959 66.11 114.872 64.02C117.849 61.93 119.812 59.1117 120.762 55.565H127.792C126.526 60.6317 123.802 64.78 119.622 68.01C115.506 71.1767 110.312 72.76 104.042 72.76C99.1658 72.76 94.7958 71.6833 90.9325 69.53C87.0691 67.3133 84.0291 64.21 81.8125 60.22C79.6591 56.1667 78.5825 51.4483 78.5825 46.065C78.5825 40.6817 79.6591 35.9633 81.8125 31.91C83.9658 27.8567 86.9741 24.7533 90.8375 22.6C94.7008 20.4467 99.1025 19.37 104.042 19.37C108.982 19.37 113.289 20.4467 116.962 22.6C120.699 24.7533 123.549 27.6667 125.512 31.34C127.539 34.95 128.552 38.9717 128.552 43.405ZM121.807 43.215C121.871 39.3517 121.079 36.0583 119.432 33.335C117.849 30.6117 115.664 28.5533 112.877 27.16C110.091 25.7667 107.051 25.07 103.757 25.07C98.8175 25.07 94.6058 26.6533 91.1225 29.82C87.6391 32.9867 85.7075 37.4517 85.3275 43.215H121.807ZM137.679 45.97C137.679 40.65 138.756 35.995 140.909 32.005C143.062 27.9517 146.007 24.8483 149.744 22.695C153.544 20.4783 157.819 19.37 162.569 19.37C167.446 19.37 171.689 20.5417 175.299 22.885C178.909 25.165 181.474 28.0467 182.994 31.53V20.13H189.644V96.51H182.994V60.6C181.474 64.0833 178.877 66.9967 175.204 69.34C171.594 71.62 167.319 72.76 162.379 72.76C157.692 72.76 153.449 71.6517 149.649 69.435C145.912 67.2183 142.967 64.0833 140.814 60.03C138.724 55.9767 137.679 51.29 137.679 45.97ZM182.994 46.065C182.994 41.885 182.139 38.2117 180.429 35.045C178.719 31.8783 176.376 29.44 173.399 27.73C170.486 26.02 167.256 25.165 163.709 25.165C160.036 25.165 156.742 25.9883 153.829 27.635C150.916 29.2817 148.604 31.6883 146.894 34.855C145.247 37.9583 144.424 41.6633 144.424 45.97C144.424 50.2133 145.247 53.95 146.894 57.18C148.604 60.3467 150.916 62.785 153.829 64.495C156.742 66.1417 160.036 66.965 163.709 66.965C167.256 66.965 170.486 66.11 173.399 64.4C176.376 62.69 178.719 60.2517 180.429 57.085C182.139 53.9183 182.994 50.245 182.994 46.065ZM249.761 20.13V72H243.111V62.88C241.591 66.11 239.247 68.58 236.081 70.29C232.914 72 229.367 72.855 225.441 72.855C219.234 72.855 214.167 70.955 210.241 67.155C206.314 63.2917 204.351 57.7183 204.351 50.435V20.13H210.906V49.675C210.906 55.3117 212.299 59.6183 215.086 62.595C217.936 65.5717 221.799 67.06 226.676 67.06C231.679 67.06 235.669 65.4767 238.646 62.31C241.622 59.1433 243.111 54.4883 243.111 48.345V20.13H249.761ZM311.873 43.405C311.873 45.685 311.809 47.4267 311.683 48.63H268.648C268.838 52.5567 269.788 55.9133 271.498 58.7C273.208 61.4867 275.456 63.6083 278.243 65.065C281.029 66.4583 284.069 67.155 287.363 67.155C291.669 67.155 295.279 66.11 298.193 64.02C301.169 61.93 303.133 59.1117 304.083 55.565H311.113C309.846 60.6317 307.123 64.78 302.943 68.01C298.826 71.1767 293.633 72.76 287.363 72.76C282.486 72.76 278.116 71.6833 274.253 69.53C270.389 67.3133 267.349 64.21 265.133 60.22C262.979 56.1667 261.903 51.4483 261.903 46.065C261.903 40.6817 262.979 35.9633 265.133 31.91C267.286 27.8567 270.294 24.7533 274.158 22.6C278.021 20.4467 282.423 19.37 287.363 19.37C292.303 19.37 296.609 20.4467 300.283 22.6C304.019 24.7533 306.869 27.6667 308.833 31.34C310.859 34.95 311.873 38.9717 311.873 43.405ZM305.128 43.215C305.191 39.3517 304.399 36.0583 302.753 33.335C301.169 30.6117 298.984 28.5533 296.198 27.16C293.411 25.7667 290.371 25.07 287.078 25.07C282.138 25.07 277.926 26.6533 274.443 29.82C270.959 32.9867 269.028 37.4517 268.648 43.215H305.128ZM348.359 19.18C354.566 19.18 359.633 21.1117 363.559 24.975C367.486 28.775 369.449 34.3167 369.449 41.6V72H362.894V42.36C362.894 36.7233 361.469 32.4167 358.619 29.44C355.833 26.4633 352.001 24.975 347.124 24.975C342.121 24.975 338.131 26.5583 335.154 29.725C332.178 32.8917 330.689 37.5467 330.689 43.69V72H324.039V20.13H330.689V28.965C332.336 25.7983 334.711 23.3917 337.814 21.745C340.918 20.035 344.433 19.18 348.359 19.18ZM392.802 25.735V57.94C392.802 61.1067 393.403 63.2917 394.607 64.495C395.81 65.6983 397.932 66.3 400.972 66.3H407.052V72H399.927C395.24 72 391.757 70.9233 389.477 68.77C387.197 66.5533 386.057 62.9433 386.057 57.94V25.735H378.837V20.13H386.057V7.115H392.802V20.13H407.052V25.735H392.802ZM424.669 1.7V72H418.019V1.7H424.669ZM482.478 20.13L451.698 96.415H444.763L454.833 71.715L433.553 20.13H440.868L458.538 64.4L475.638 20.13H482.478ZM514.525 45.97C514.525 40.65 515.57 35.995 517.66 32.005C519.813 27.9517 522.758 24.8483 526.495 22.695C530.295 20.4783 534.57 19.37 539.32 19.37C544.26 19.37 548.503 20.51 552.05 22.79C555.66 25.07 558.257 27.9833 559.84 31.53V20.13H566.49V72H559.84V60.505C558.193 64.0517 555.565 66.9967 551.955 69.34C548.408 71.62 544.165 72.76 539.225 72.76C534.538 72.76 530.295 71.6517 526.495 69.435C522.758 67.2183 519.813 64.0833 517.66 60.03C515.57 55.9767 514.525 51.29 514.525 45.97ZM559.84 46.065C559.84 41.885 558.985 38.2117 557.275 35.045C555.565 31.8783 553.222 29.44 550.245 27.73C547.332 26.02 544.102 25.165 540.555 25.165C536.882 25.165 533.588 25.9883 530.675 27.635C527.762 29.2817 525.45 31.6883 523.74 34.855C522.093 37.9583 521.27 41.6633 521.27 45.97C521.27 50.2133 522.093 53.95 523.74 57.18C525.45 60.3467 527.762 62.785 530.675 64.495C533.588 66.1417 536.882 66.965 540.555 66.965C544.102 66.965 547.332 66.11 550.245 64.4C553.222 62.69 555.565 60.2517 557.275 57.085C558.985 53.9183 559.84 50.245 559.84 46.065ZM599.531 72.76C593.578 72.76 588.701 71.3983 584.901 68.675C581.165 65.8883 579.075 62.12 578.631 57.37H585.471C585.788 60.2833 587.15 62.6583 589.556 64.495C592.026 66.2683 595.32 67.155 599.436 67.155C603.046 67.155 605.865 66.3 607.891 64.59C609.981 62.88 611.026 60.7583 611.026 58.225C611.026 56.4517 610.456 54.995 609.316 53.855C608.176 52.715 606.72 51.8283 604.946 51.195C603.236 50.4983 600.893 49.77 597.916 49.01C594.053 47.9967 590.918 46.9833 588.511 45.97C586.105 44.9567 584.046 43.4683 582.336 41.505C580.69 39.4783 579.866 36.7867 579.866 33.43C579.866 30.8967 580.626 28.5533 582.146 26.4C583.666 24.2467 585.82 22.5367 588.606 21.27C591.393 20.0033 594.56 19.37 598.106 19.37C603.68 19.37 608.176 20.795 611.596 23.645C615.016 26.4317 616.853 30.295 617.106 35.235H610.456C610.266 32.195 609.063 29.7567 606.846 27.92C604.693 26.02 601.716 25.07 597.916 25.07C594.56 25.07 591.836 25.8617 589.746 27.445C587.656 29.0283 586.611 30.9917 586.611 33.335C586.611 35.3617 587.213 37.04 588.416 38.37C589.683 39.6367 591.235 40.65 593.071 41.41C594.908 42.1067 597.378 42.8983 600.481 43.785C604.218 44.7983 607.195 45.78 609.411 46.73C611.628 47.68 613.528 49.0733 615.111 50.91C616.695 52.7467 617.518 55.185 617.581 58.225C617.581 61.0117 616.821 63.5133 615.301 65.73C613.781 67.8833 611.66 69.5933 608.936 70.86C606.213 72.1267 603.078 72.76 599.531 72.76ZM658.124 72L636.749 48.725V72H630.099V1.7H636.749V43.31L657.649 20.13H666.959L642.354 45.97L667.149 72H658.124ZM722.674 43.405C722.674 45.685 722.61 47.4267 722.484 48.63H679.449C679.639 52.5567 680.589 55.9133 682.299 58.7C684.009 61.4867 686.257 63.6083 689.044 65.065C691.83 66.4583 694.87 67.155 698.164 67.155C702.47 67.155 706.08 66.11 708.994 64.02C711.97 61.93 713.934 59.1117 714.884 55.565H721.914C720.647 60.6317 717.924 64.78 713.744 68.01C709.627 71.1767 704.434 72.76 698.164 72.76C693.287 72.76 688.917 71.6833 685.054 69.53C681.19 67.3133 678.15 64.21 675.934 60.22C673.78 56.1667 672.704 51.4483 672.704 46.065C672.704 40.6817 673.78 35.9633 675.934 31.91C678.087 27.8567 681.095 24.7533 684.959 22.6C688.822 20.4467 693.224 19.37 698.164 19.37C703.104 19.37 707.41 20.4467 711.084 22.6C714.82 24.7533 717.67 27.6667 719.634 31.34C721.66 34.95 722.674 38.9717 722.674 43.405ZM715.929 43.215C715.992 39.3517 715.2 36.0583 713.554 33.335C711.97 30.6117 709.785 28.5533 706.999 27.16C704.212 25.7667 701.172 25.07 697.879 25.07C692.939 25.07 688.727 26.6533 685.244 29.82C681.76 32.9867 679.829 37.4517 679.449 43.215H715.929ZM731.8 45.97C731.8 40.65 732.877 35.995 735.03 32.005C737.184 27.9517 740.129 24.8483 743.865 22.695C747.665 20.4783 751.94 19.37 756.69 19.37C761.25 19.37 765.367 20.4783 769.04 22.695C772.714 24.9117 775.405 27.7933 777.115 31.34V1.7H783.765V72H777.115V60.41C775.532 64.02 772.935 66.9967 769.325 69.34C765.715 71.62 761.472 72.76 756.595 72.76C751.845 72.76 747.57 71.6517 743.77 69.435C740.034 67.2183 737.089 64.0833 734.935 60.03C732.845 55.9767 731.8 51.29 731.8 45.97ZM777.115 46.065C777.115 41.885 776.26 38.2117 774.55 35.045C772.84 31.8783 770.497 29.44 767.52 27.73C764.607 26.02 761.377 25.165 757.83 25.165C754.157 25.165 750.864 25.9883 747.95 27.635C745.037 29.2817 742.725 31.6883 741.015 34.855C739.369 37.9583 738.545 41.6633 738.545 45.97C738.545 50.2133 739.369 53.95 741.015 57.18C742.725 60.3467 745.037 62.785 747.95 64.495C750.864 66.1417 754.157 66.965 757.83 66.965C761.377 66.965 764.607 66.11 767.52 64.4C770.497 62.69 772.84 60.2517 774.55 57.085C776.26 53.9183 777.115 50.245 777.115 46.065ZM821.976 45.97C821.976 40.65 823.053 35.995 825.206 32.005C827.359 27.9517 830.304 24.8483 834.041 22.695C837.841 20.4783 842.116 19.37 846.866 19.37C851.743 19.37 855.986 20.5417 859.596 22.885C863.206 25.165 865.771 28.0467 867.291 31.53V20.13H873.941V96.51H867.291V60.6C865.771 64.0833 863.174 66.9967 859.501 69.34C855.891 71.62 851.616 72.76 846.676 72.76C841.989 72.76 837.746 71.6517 833.946 69.435C830.209 67.2183 827.264 64.0833 825.111 60.03C823.021 55.9767 821.976 51.29 821.976 45.97ZM867.291 46.065C867.291 41.885 866.436 38.2117 864.726 35.045C863.016 31.8783 860.673 29.44 857.696 27.73C854.783 26.02 851.553 25.165 848.006 25.165C844.333 25.165 841.039 25.9883 838.126 27.635C835.213 29.2817 832.901 31.6883 831.191 34.855C829.544 37.9583 828.721 41.6633 828.721 45.97C828.721 50.2133 829.544 53.95 831.191 57.18C832.901 60.3467 835.213 62.785 838.126 64.495C841.039 66.1417 844.333 66.965 848.006 66.965C851.553 66.965 854.783 66.11 857.696 64.4C860.673 62.69 863.016 60.2517 864.726 57.085C866.436 53.9183 867.291 50.245 867.291 46.065ZM934.057 20.13V72H927.407V62.88C925.887 66.11 923.544 68.58 920.377 70.29C917.211 72 913.664 72.855 909.737 72.855C903.531 72.855 898.464 70.955 894.537 67.155C890.611 63.2917 888.647 57.7183 888.647 50.435V20.13H895.202V49.675C895.202 55.3117 896.596 59.6183 899.382 62.595C902.232 65.5717 906.096 67.06 910.972 67.06C915.976 67.06 919.966 65.4767 922.942 62.31C925.919 59.1433 927.407 54.4883 927.407 48.345V20.13H934.057ZM996.17 43.405C996.17 45.685 996.106 47.4267 995.98 48.63H952.945C953.135 52.5567 954.085 55.9133 955.795 58.7C957.505 61.4867 959.753 63.6083 962.54 65.065C965.326 66.4583 968.366 67.155 971.66 67.155C975.966 67.155 979.576 66.11 982.49 64.02C985.466 61.93 987.43 59.1117 988.38 55.565H995.41C994.143 60.6317 991.42 64.78 987.24 68.01C983.123 71.1767 977.93 72.76 971.66 72.76C966.783 72.76 962.413 71.6833 958.55 69.53C954.686 67.3133 951.646 64.21 949.43 60.22C947.276 56.1667 946.2 51.4483 946.2 46.065C946.2 40.6817 947.276 35.9633 949.43 31.91C951.583 27.8567 954.591 24.7533 958.455 22.6C962.318 20.4467 966.72 19.37 971.66 19.37C976.6 19.37 980.906 20.4467 984.58 22.6C988.316 24.7533 991.166 27.6667 993.13 31.34C995.156 34.95 996.17 38.9717 996.17 43.405ZM989.425 43.215C989.488 39.3517 988.696 36.0583 987.05 33.335C985.466 30.6117 983.281 28.5533 980.495 27.16C977.708 25.7667 974.668 25.07 971.375 25.07C966.435 25.07 962.223 26.6533 958.74 29.82C955.256 32.9867 953.325 37.4517 952.945 43.215H989.425ZM1026.2 72.76C1020.24 72.76 1015.37 71.3983 1011.57 68.675C1007.83 65.8883 1005.74 62.12 1005.3 57.37H1012.14C1012.45 60.2833 1013.81 62.6583 1016.22 64.495C1018.69 66.2683 1021.98 67.155 1026.1 67.155C1029.71 67.155 1032.53 66.3 1034.56 64.59C1036.65 62.88 1037.69 60.7583 1037.69 58.225C1037.69 56.4517 1037.12 54.995 1035.98 53.855C1034.84 52.715 1033.38 51.8283 1031.61 51.195C1029.9 50.4983 1027.56 49.77 1024.58 49.01C1020.72 47.9967 1017.58 46.9833 1015.18 45.97C1012.77 44.9567 1010.71 43.4683 1009 41.505C1007.35 39.4783 1006.53 36.7867 1006.53 33.43C1006.53 30.8967 1007.29 28.5533 1008.81 26.4C1010.33 24.2467 1012.48 22.5367 1015.27 21.27C1018.06 20.0033 1021.22 19.37 1024.77 19.37C1030.34 19.37 1034.84 20.795 1038.26 23.645C1041.68 26.4317 1043.52 30.295 1043.77 35.235H1037.12C1036.93 32.195 1035.73 29.7567 1033.51 27.92C1031.36 26.02 1028.38 25.07 1024.58 25.07C1021.22 25.07 1018.5 25.8617 1016.41 27.445C1014.32 29.0283 1013.28 30.9917 1013.28 33.335C1013.28 35.3617 1013.88 37.04 1015.08 38.37C1016.35 39.6367 1017.9 40.65 1019.74 41.41C1021.57 42.1067 1024.04 42.8983 1027.15 43.785C1030.88 44.7983 1033.86 45.78 1036.08 46.73C1038.29 47.68 1040.19 49.0733 1041.78 50.91C1043.36 52.7467 1044.18 55.185 1044.25 58.225C1044.25 61.0117 1043.49 63.5133 1041.97 65.73C1040.45 67.8833 1038.32 69.5933 1035.6 70.86C1032.88 72.1267 1029.74 72.76 1026.2 72.76ZM1065.41 25.735V57.94C1065.41 61.1067 1066.01 63.2917 1067.21 64.495C1068.42 65.6983 1070.54 66.3 1073.58 66.3H1079.66V72H1072.53C1067.85 72 1064.36 70.9233 1062.08 68.77C1059.8 66.5533 1058.66 62.9433 1058.66 57.94V25.735H1051.44V20.13H1058.66V7.115H1065.41V20.13H1079.66V25.735H1065.41ZM1093.95 10.345C1092.62 10.345 1091.48 9.87 1090.53 8.92C1089.58 7.97 1089.11 6.79833 1089.11 5.405C1089.11 4.01166 1089.58 2.87166 1090.53 1.985C1091.48 1.035 1092.62 0.559997 1093.95 0.559997C1095.28 0.559997 1096.42 1.035 1097.37 1.985C1098.32 2.87166 1098.8 4.01166 1098.8 5.405C1098.8 6.79833 1098.32 7.97 1097.37 8.92C1096.42 9.87 1095.28 10.345 1093.95 10.345ZM1097.28 20.13V72H1090.63V20.13H1097.28ZM1135.04 72.76C1130.16 72.76 1125.76 71.6833 1121.84 69.53C1117.97 67.3133 1114.9 64.21 1112.62 60.22C1110.4 56.1667 1109.3 51.4483 1109.3 46.065C1109.3 40.6817 1110.44 35.995 1112.72 32.005C1115 27.9517 1118.1 24.8483 1122.03 22.695C1125.95 20.4783 1130.35 19.37 1135.23 19.37C1140.11 19.37 1144.51 20.4783 1148.44 22.695C1152.43 24.8483 1155.53 27.9517 1157.75 32.005C1160.03 35.995 1161.17 40.6817 1161.17 46.065C1161.17 51.385 1160.03 56.0717 1157.75 60.125C1155.47 64.1783 1152.33 67.3133 1148.34 69.53C1144.35 71.6833 1139.92 72.76 1135.04 72.76ZM1135.04 66.965C1138.46 66.965 1141.63 66.205 1144.54 64.685C1147.45 63.1017 1149.8 60.7583 1151.57 57.655C1153.41 54.4883 1154.33 50.625 1154.33 46.065C1154.33 41.505 1153.44 37.6733 1151.67 34.57C1149.89 31.4033 1147.55 29.06 1144.64 27.54C1141.72 25.9567 1138.56 25.165 1135.14 25.165C1131.72 25.165 1128.55 25.9567 1125.64 27.54C1122.72 29.06 1120.38 31.4033 1118.61 34.57C1116.9 37.6733 1116.04 41.505 1116.04 46.065C1116.04 50.625 1116.9 54.4883 1118.61 57.655C1120.38 60.7583 1122.69 63.1017 1125.54 64.685C1128.45 66.205 1131.62 66.965 1135.04 66.965ZM1197.61 19.18C1203.81 19.18 1208.88 21.1117 1212.81 24.975C1216.73 28.775 1218.7 34.3167 1218.7 41.6V72H1212.14V42.36C1212.14 36.7233 1210.72 32.4167 1207.87 29.44C1205.08 26.4633 1201.25 24.975 1196.37 24.975C1191.37 24.975 1187.38 26.5583 1184.4 29.725C1181.43 32.8917 1179.94 37.5467 1179.94 43.69V72H1173.29V20.13H1179.94V28.965C1181.58 25.7983 1183.96 23.3917 1187.06 21.745C1190.17 20.035 1193.68 19.18 1197.61 19.18ZM1251.26 72.76C1245.31 72.76 1240.43 71.3983 1236.63 68.675C1232.9 65.8883 1230.81 62.12 1230.36 57.37H1237.2C1237.52 60.2833 1238.88 62.6583 1241.29 64.495C1243.76 66.2683 1247.05 67.155 1251.17 67.155C1254.78 67.155 1257.6 66.3 1259.62 64.59C1261.71 62.88 1262.76 60.7583 1262.76 58.225C1262.76 56.4517 1262.19 54.995 1261.05 53.855C1259.91 52.715 1258.45 51.8283 1256.68 51.195C1254.97 50.4983 1252.63 49.77 1249.65 49.01C1245.79 47.9967 1242.65 46.9833 1240.24 45.97C1237.84 44.9567 1235.78 43.4683 1234.07 41.505C1232.42 39.4783 1231.6 36.7867 1231.6 33.43C1231.6 30.8967 1232.36 28.5533 1233.88 26.4C1235.4 24.2467 1237.55 22.5367 1240.34 21.27C1243.13 20.0033 1246.29 19.37 1249.84 19.37C1255.41 19.37 1259.91 20.795 1263.33 23.645C1266.75 26.4317 1268.59 30.295 1268.84 35.235H1262.19C1262 32.195 1260.8 29.7567 1258.58 27.92C1256.43 26.02 1253.45 25.07 1249.65 25.07C1246.29 25.07 1243.57 25.8617 1241.48 27.445C1239.39 29.0283 1238.34 30.9917 1238.34 33.335C1238.34 35.3617 1238.95 37.04 1240.15 38.37C1241.42 39.6367 1242.97 40.65 1244.8 41.41C1246.64 42.1067 1249.11 42.8983 1252.21 43.785C1255.95 44.7983 1258.93 45.78 1261.14 46.73C1263.36 47.68 1265.26 49.0733 1266.84 50.91C1268.43 52.7467 1269.25 55.185 1269.31 58.225C1269.31 61.0117 1268.55 63.5133 1267.03 65.73C1265.51 67.8833 1263.39 69.5933 1260.67 70.86C1257.95 72.1267 1254.81 72.76 1251.26 72.76Z" fill="#00263A" fill-opacity="0.05"/>
</svg>
