<svg width="151" height="45" viewBox="0 0 151 45" fill="none" xmlns="http://www.w3.org/2000/svg">
<g clip-path="url(#clip0_36_185)">
<path d="M141.767 0.362305H8.73877C4.05217 0.362305 0.25293 4.12362 0.25293 8.76343V35.9612C0.25293 40.601 4.05217 44.3623 8.73877 44.3623H141.767C146.454 44.3623 150.253 40.601 150.253 35.9612V8.76343C150.253 4.12362 146.454 0.362305 141.767 0.362305Z" fill="white"/>
<path d="M49.3727 13.9508C48.9134 13.9508 48.4959 13.8784 48.1097 13.7338C47.7235 13.5891 47.3895 13.3824 47.1077 13.1034C46.8259 12.8348 46.6067 12.5144 46.4501 12.1631C46.2935 11.8014 46.2205 11.4087 46.2205 10.9747C46.2205 10.5407 46.2935 10.1377 46.4501 9.78639C46.6067 9.42472 46.8259 9.11471 47.1181 8.84604C47.4104 8.57737 47.7444 8.3707 48.1201 8.2157C48.5063 8.07103 48.9238 7.99869 49.3935 7.99869C49.8841 7.99869 50.3329 8.08136 50.7296 8.23636C51.1262 8.4017 51.4602 8.62904 51.742 8.93904L51.0531 9.60038C50.8235 9.37305 50.573 9.20771 50.3121 9.09404C50.0511 8.98038 49.7589 8.92871 49.4353 8.92871C49.1117 8.92871 48.8403 8.98038 48.5794 9.07338C48.3185 9.17671 48.0993 9.31105 47.901 9.49705C47.7026 9.68305 47.5669 9.88972 47.4626 10.1481C47.3582 10.3961 47.306 10.6751 47.306 10.9644C47.306 11.2537 47.3582 11.5327 47.4626 11.7808C47.5669 12.0288 47.7131 12.2458 47.901 12.4318C48.0888 12.6178 48.3185 12.7521 48.569 12.8554C48.8195 12.9588 49.1117 13.0001 49.4249 13.0001C49.7171 13.0001 49.9989 12.9588 50.2703 12.8658C50.5417 12.7728 50.8026 12.6178 51.0427 12.4008L51.6585 13.2068C51.3558 13.4548 51.0009 13.6304 50.6043 13.7544C50.2077 13.8784 49.7902 13.9405 49.3727 13.9405V13.9508ZM50.6356 13.0724V10.9127H51.6585V13.2171L50.6356 13.0724ZM54.3514 12.9588H57.6602V13.8681H53.2659V8.07103H57.5454V8.98038H54.3514V12.9588ZM54.2679 10.4787H57.1801V11.3674H54.2679V10.4787ZM60.2279 13.8681V8.98038H58.2864V8.07103H63.2548V8.98038H61.3134V13.8681H60.2279ZM66.7201 13.8681V8.07103H67.8056V13.8681H66.7201ZM70.749 13.8681V8.98038H68.8076V8.07103H73.776V8.98038H71.8346V13.8681H70.749ZM79.9864 13.9508C79.5376 13.9508 79.1096 13.8784 78.7234 13.7234C78.3372 13.5788 78.0032 13.3618 77.711 13.0931C77.4292 12.8244 77.21 12.5041 77.0534 12.1424C76.8968 11.7808 76.8238 11.3881 76.8238 10.9644C76.8238 10.5407 76.8968 10.1377 77.0534 9.77605C77.21 9.41438 77.4292 9.10438 77.711 8.83571C77.9928 8.56704 78.3268 8.36037 78.713 8.20536C79.0992 8.0607 79.5167 7.97803 79.976 7.97803C80.4352 7.97803 80.8423 8.05036 81.2285 8.19503C81.6147 8.3397 81.9487 8.54637 82.2305 8.81504C82.5123 9.08371 82.7315 9.40405 82.8881 9.76572C83.0446 10.1274 83.1281 10.5304 83.1281 10.9541C83.1281 11.3777 83.0446 11.7808 82.8881 12.1424C82.7315 12.5041 82.5123 12.8244 82.2305 13.0931C81.9487 13.3618 81.6147 13.5684 81.2285 13.7234C80.8423 13.8681 80.4248 13.9405 79.976 13.9405L79.9864 13.9508ZM79.9864 13.0104C80.2787 13.0104 80.55 12.9588 80.8005 12.8658C81.051 12.7624 81.2598 12.6281 81.4477 12.4421C81.6356 12.2561 81.7712 12.0494 81.8756 11.7911C81.98 11.5431 82.0322 11.2641 82.0322 10.9747C82.0322 10.6854 81.98 10.4064 81.8861 10.1584C81.7817 9.91039 81.646 9.69339 81.4581 9.50738C81.2702 9.32138 81.051 9.18705 80.8005 9.08371C80.55 8.98038 80.2787 8.93904 79.9864 8.93904C79.6941 8.93904 79.4123 8.99071 79.1618 9.08371C78.9113 9.18705 78.6921 9.32138 78.5042 9.50738C78.3164 9.69339 78.1807 9.91039 78.0659 10.1584C77.9615 10.4064 77.9093 10.6751 77.9093 10.9747C77.9093 11.2744 77.9615 11.5431 78.0659 11.7911C78.1702 12.0391 78.3164 12.2561 78.5042 12.4421C78.6921 12.6281 78.9113 12.7728 79.1618 12.8658C79.4123 12.9691 79.6941 13.0104 79.9864 13.0104ZM84.4537 13.8681V8.07103H85.3514L89.0254 12.5454H88.587V8.07103H89.6621V13.8681H88.7645L85.1009 9.39372H85.5392V13.8681H84.4642H84.4537ZM75.947 24.2843C73.3376 24.2843 71.2083 26.2476 71.2083 28.9653C71.2083 31.6831 73.3376 33.6464 75.947 33.6464C78.5564 33.6464 80.6857 31.6624 80.6857 28.9653C80.6857 26.2683 78.5564 24.2843 75.947 24.2843ZM75.947 31.7967C74.517 31.7967 73.275 30.629 73.275 28.9653C73.275 27.3017 74.5066 26.134 75.947 26.134C77.3874 26.134 78.6191 27.281 78.6191 28.9653C78.6191 30.6497 77.3874 31.7967 75.947 31.7967ZM65.6033 24.2843C62.9938 24.2843 60.8646 26.2476 60.8646 28.9653C60.8646 31.6831 62.9938 33.6464 65.6033 33.6464C68.2127 33.6464 70.342 31.6624 70.342 28.9653C70.342 26.2683 68.2127 24.2843 65.6033 24.2843ZM65.6033 31.7967C64.1733 31.7967 62.9312 30.629 62.9312 28.9653C62.9312 27.3017 64.1629 26.134 65.6033 26.134C67.0437 26.134 68.2753 27.281 68.2753 28.9653C68.2753 30.6497 67.0437 31.7967 65.6033 31.7967ZM53.2972 25.7206V27.7047H58.0986C57.9524 28.8207 57.5767 29.637 57.0026 30.2054C56.3033 30.8977 55.2178 31.6624 53.2972 31.6624C50.3434 31.6624 48.0366 29.3064 48.0366 26.382C48.0366 23.4576 50.3434 21.1016 53.2972 21.1016C54.8942 21.1016 56.0528 21.7216 56.9087 22.5172L58.3178 21.1222C57.1174 19.9855 55.5205 19.1175 53.2868 19.1175C49.237 19.1175 45.8447 22.3829 45.8447 26.382C45.8447 30.381 49.2474 33.6464 53.2868 33.6464C55.4683 33.6464 57.1174 32.9334 58.4013 31.6107C59.7268 30.2984 60.1339 28.459 60.1339 26.971C60.1339 26.506 60.1026 26.0823 60.0295 25.731H53.2764L53.2972 25.7206ZM103.638 27.2603C103.242 26.2166 102.041 24.2843 99.5884 24.2843C97.1355 24.2843 95.1315 26.1856 95.1315 28.9653C95.1315 31.5901 97.1355 33.6464 99.818 33.6464C101.989 33.6464 103.242 32.3341 103.753 31.5694L102.146 30.505C101.613 31.28 100.872 31.7967 99.818 31.7967C98.7638 31.7967 98.0123 31.3214 97.5217 30.381L103.837 27.7977L103.617 27.2707L103.638 27.2603ZM97.1981 28.8207C97.146 27.0123 98.6072 26.0926 99.6719 26.0926C100.496 26.0926 101.196 26.4956 101.425 27.0847L97.1981 28.8207ZM92.0628 33.3571H94.1399V19.6032H92.0628V33.3571ZM88.6601 25.328H88.587C88.1174 24.7803 87.2302 24.2843 86.1029 24.2843C83.744 24.2843 81.5729 26.3406 81.5729 28.9757C81.5729 31.6107 83.744 33.6361 86.1029 33.6361C87.2302 33.6361 88.1278 33.1401 88.587 32.5717H88.6601V33.2434C88.6601 35.0311 87.6894 35.9921 86.1342 35.9921C84.8608 35.9921 84.078 35.0931 83.7544 34.3284L81.9487 35.0724C82.4706 36.3125 83.8483 37.8418 86.1342 37.8418C88.5662 37.8418 90.6224 36.4261 90.6224 32.9644V24.5633H88.6497V25.328H88.6601ZM86.2803 31.7967C84.8504 31.7967 83.65 30.6084 83.65 28.9757C83.65 27.343 84.8504 26.1236 86.2803 26.1236C87.7103 26.1236 88.8062 27.3327 88.8062 28.9757C88.8062 30.6187 87.6998 31.7967 86.2803 31.7967ZM113.366 19.6032H108.398V33.3571H110.475V28.149H113.366C115.662 28.149 117.927 26.506 117.927 23.8813C117.927 21.2566 115.673 19.6135 113.366 19.6135V19.6032ZM113.418 26.227H110.475V21.5149H113.418C114.974 21.5149 115.85 22.7859 115.85 23.8709C115.85 24.9559 114.974 26.227 113.418 26.227ZM126.236 24.2533C124.733 24.2533 123.178 24.9043 122.541 26.3613L124.378 27.126C124.775 26.3613 125.505 26.1133 126.267 26.1133C127.342 26.1133 128.428 26.754 128.449 27.8803V28.025C128.073 27.808 127.269 27.498 126.288 27.498C124.305 27.498 122.28 28.5727 122.28 30.598C122.28 32.4374 123.908 33.6257 125.724 33.6257C127.123 33.6257 127.885 33.0057 128.365 32.2824H128.438V33.3467H130.442V28.0767C130.442 25.638 128.605 24.2739 126.225 24.2739L126.236 24.2533ZM125.985 31.7864C125.307 31.7864 124.357 31.4454 124.357 30.6187C124.357 29.5544 125.536 29.1513 126.559 29.1513C127.467 29.1513 127.895 29.3477 128.449 29.6164C128.292 30.8874 127.175 31.7967 125.985 31.7967V31.7864ZM137.749 24.5529L135.369 30.5154H135.296L132.832 24.5529H130.599L134.294 32.8817L132.185 37.5215H134.346L140.045 24.5529H137.738H137.749ZM119.076 33.3467H121.153V19.5929H119.076V33.3467Z" fill="#00263A"/>
<path d="M23.2683 21.7319L11.4424 34.1631C11.8077 35.5168 13.0498 36.5088 14.5319 36.5088C15.1269 36.5088 15.6801 36.3538 16.1498 36.0748L16.1915 36.0542L29.51 28.4487L23.2787 21.7319H23.2683Z" fill="#EA4335"/>
<path d="M35.2403 19.6138H35.2299L29.4787 16.3071L23.0073 22.0112L29.51 28.449L35.2299 25.1836C36.2319 24.6463 36.9103 23.6026 36.9103 22.3936C36.9103 21.1845 36.2423 20.1512 35.2507 19.6138H35.2403Z" fill="#FBBC04"/>
<path d="M11.4423 10.5718C11.3692 10.8301 11.3379 11.1091 11.3379 11.3881V33.3571C11.3379 33.6361 11.3796 33.9151 11.4423 34.1735L23.6752 22.0626L11.4423 10.5821V10.5718Z" fill="#4285F4"/>
<path d="M23.362 22.3624L29.489 16.3069L16.1913 8.67049C15.7112 8.38116 15.1476 8.21582 14.5422 8.21582C13.06 8.21582 11.818 9.20784 11.4526 10.5615L23.3725 22.3624H23.362Z" fill="#34A853"/>
</g>
<defs>
<clipPath id="clip0_36_185">
<rect width="150" height="44" fill="white" transform="translate(0.25293 0.362305)"/>
</clipPath>
</defs>
</svg>
