<svg width="870" height="87" viewBox="0 0 870 87" fill="none" xmlns="http://www.w3.org/2000/svg">
<path d="M69.8578 25.6C67.4578 20.08 63.7778 15.76 58.8178 12.64C53.9378 9.44 48.1778 7.84 41.5378 7.84C35.2978 7.84 29.6978 9.28 24.7378 12.16C19.7778 15.04 15.8578 19.16 12.9778 24.52C10.0978 29.8 8.65781 35.96 8.65781 43C8.65781 50.04 10.0978 56.24 12.9778 61.6C15.8578 66.96 19.7778 71.08 24.7378 73.96C29.6978 76.84 35.2978 78.28 41.5378 78.28C47.3778 78.28 52.6178 77.04 57.2578 74.56C61.9778 72 65.7378 68.4 68.5378 63.76C71.4178 59.04 73.0578 53.56 73.4578 47.32H38.1778V40.48H82.3378V46.6C81.9378 53.96 79.9378 60.64 76.3378 66.64C72.7378 72.56 67.8978 77.24 61.8178 80.68C55.8178 84.12 49.0578 85.84 41.5378 85.84C33.7778 85.84 26.7378 84.04 20.4178 80.44C14.0978 76.76 9.09781 71.68 5.41781 65.2C1.81781 58.64 0.0178126 51.24 0.0178126 43C0.0178126 34.76 1.81781 27.4 5.41781 20.92C9.09781 14.36 14.0978 9.27999 20.4178 5.68C26.7378 2 33.7778 0.159998 41.5378 0.159998C50.4978 0.159998 58.3378 2.4 65.0578 6.88C71.7778 11.36 76.6578 17.6 79.6978 25.6H69.8578ZM106.125 31.12C107.965 27.04 110.765 23.88 114.525 21.64C118.365 19.4 123.045 18.28 128.565 18.28V27.04H126.285C120.205 27.04 115.325 28.68 111.645 31.96C107.965 35.24 106.125 40.72 106.125 48.4V85H97.725V19.48H106.125V31.12ZM200.482 48.88C200.482 51.76 200.402 53.96 200.242 55.48H145.882C146.122 60.44 147.322 64.68 149.482 68.2C151.642 71.72 154.482 74.4 158.002 76.24C161.522 78 165.362 78.88 169.522 78.88C174.962 78.88 179.522 77.56 183.202 74.92C186.962 72.28 189.442 68.72 190.642 64.24H199.522C197.922 70.64 194.482 75.88 189.202 79.96C184.002 83.96 177.442 85.96 169.522 85.96C163.362 85.96 157.842 84.6 152.962 81.88C148.082 79.08 144.242 75.16 141.442 70.12C138.722 65 137.362 59.04 137.362 52.24C137.362 45.44 138.722 39.48 141.442 34.36C144.162 29.24 147.962 25.32 152.842 22.6C157.722 19.88 163.282 18.52 169.522 18.52C175.762 18.52 181.202 19.88 185.842 22.6C190.562 25.32 194.162 29 196.642 33.64C199.202 38.2 200.482 43.28 200.482 48.88ZM191.962 48.64C192.042 43.76 191.042 39.6 188.962 36.16C186.962 32.72 184.202 30.12 180.682 28.36C177.162 26.6 173.322 25.72 169.162 25.72C162.922 25.72 157.602 27.72 153.202 31.72C148.802 35.72 146.362 41.36 145.882 48.64H191.962ZM212.01 52.12C212.01 45.4 213.33 39.52 215.97 34.48C218.69 29.36 222.41 25.44 227.13 22.72C231.93 19.92 237.33 18.52 243.33 18.52C249.57 18.52 254.93 19.96 259.41 22.84C263.97 25.72 267.25 29.4 269.25 33.88V19.48H277.65V85H269.25V70.48C267.17 74.96 263.85 78.68 259.29 81.64C254.81 84.52 249.45 85.96 243.21 85.96C237.29 85.96 231.93 84.56 227.13 81.76C222.41 78.96 218.69 75 215.97 69.88C213.33 64.76 212.01 58.84 212.01 52.12ZM269.25 52.24C269.25 46.96 268.17 42.32 266.01 38.32C263.85 34.32 260.89 31.24 257.13 29.08C253.45 26.92 249.37 25.84 244.89 25.84C240.25 25.84 236.09 26.88 232.41 28.96C228.73 31.04 225.81 34.08 223.65 38.08C221.57 42 220.53 46.68 220.53 52.12C220.53 57.48 221.57 62.2 223.65 66.28C225.81 70.28 228.73 73.36 232.41 75.52C236.09 77.6 240.25 78.64 244.89 78.64C249.37 78.64 253.45 77.56 257.13 75.4C260.89 73.24 263.85 70.16 266.01 66.16C268.17 62.16 269.25 57.52 269.25 52.24ZM307.747 26.56V67.24C307.747 71.24 308.507 74 310.027 75.52C311.547 77.04 314.227 77.8 318.067 77.8H325.747V85H316.747C310.827 85 306.427 83.64 303.547 80.92C300.667 78.12 299.227 73.56 299.227 67.24V26.56H290.107V19.48H299.227V3.04H307.747V19.48H325.747V26.56H307.747ZM417.89 1.11999V8.08H380.93V39.4H412.13V46.36H380.93V85H372.53V1.11999H417.89ZM490.989 48.88C490.989 51.76 490.909 53.96 490.749 55.48H436.389C436.629 60.44 437.829 64.68 439.989 68.2C442.149 71.72 444.989 74.4 448.509 76.24C452.029 78 455.869 78.88 460.029 78.88C465.469 78.88 470.029 77.56 473.709 74.92C477.469 72.28 479.949 68.72 481.149 64.24H490.029C488.429 70.64 484.989 75.88 479.709 79.96C474.509 83.96 467.949 85.96 460.029 85.96C453.869 85.96 448.349 84.6 443.469 81.88C438.589 79.08 434.749 75.16 431.949 70.12C429.229 65 427.869 59.04 427.869 52.24C427.869 45.44 429.229 39.48 431.949 34.36C434.669 29.24 438.469 25.32 443.349 22.6C448.229 19.88 453.789 18.52 460.029 18.52C466.269 18.52 471.709 19.88 476.349 22.6C481.069 25.32 484.669 29 487.149 33.64C489.709 38.2 490.989 43.28 490.989 48.88ZM482.469 48.64C482.549 43.76 481.549 39.6 479.469 36.16C477.469 32.72 474.709 30.12 471.189 28.36C467.669 26.6 463.829 25.72 459.669 25.72C453.429 25.72 448.109 27.72 443.709 31.72C439.309 35.72 436.869 41.36 436.389 48.64H482.469ZM502.518 52.12C502.518 45.4 503.838 39.52 506.478 34.48C509.198 29.36 512.918 25.44 517.638 22.72C522.438 19.92 527.838 18.52 533.838 18.52C540.078 18.52 545.438 19.96 549.918 22.84C554.478 25.72 557.758 29.4 559.758 33.88V19.48H568.158V85H559.758V70.48C557.678 74.96 554.358 78.68 549.798 81.64C545.318 84.52 539.958 85.96 533.718 85.96C527.798 85.96 522.438 84.56 517.638 81.76C512.918 78.96 509.198 75 506.478 69.88C503.838 64.76 502.518 58.84 502.518 52.12ZM559.758 52.24C559.758 46.96 558.678 42.32 556.518 38.32C554.358 34.32 551.398 31.24 547.638 29.08C543.958 26.92 539.878 25.84 535.398 25.84C530.758 25.84 526.598 26.88 522.918 28.96C519.238 31.04 516.318 34.08 514.158 38.08C512.078 42 511.038 46.68 511.038 52.12C511.038 57.48 512.078 62.2 514.158 66.28C516.318 70.28 519.238 73.36 522.918 75.52C526.598 77.6 530.758 78.64 535.398 78.64C539.878 78.64 543.958 77.56 547.638 75.4C551.398 73.24 554.358 70.16 556.518 66.16C558.678 62.16 559.758 57.52 559.758 52.24ZM598.254 26.56V67.24C598.254 71.24 599.014 74 600.534 75.52C602.054 77.04 604.734 77.8 608.574 77.8H616.254V85H607.254C601.334 85 596.934 83.64 594.054 80.92C591.174 78.12 589.734 73.56 589.734 67.24V26.56H580.614V19.48H589.734V3.04H598.254V19.48H616.254V26.56H598.254ZM686.868 19.48V85H678.468V73.48C676.548 77.56 673.588 80.68 669.588 82.84C665.588 85 661.108 86.08 656.148 86.08C648.308 86.08 641.908 83.68 636.948 78.88C631.988 74 629.508 66.96 629.508 57.76V19.48H637.788V56.8C637.788 63.92 639.548 69.36 643.068 73.12C646.668 76.88 651.548 78.76 657.708 78.76C664.028 78.76 669.068 76.76 672.828 72.76C676.588 68.76 678.468 62.88 678.468 55.12V19.48H686.868ZM714.445 31.12C716.285 27.04 719.085 23.88 722.845 21.64C726.685 19.4 731.365 18.28 736.885 18.28V27.04H734.605C728.525 27.04 723.645 28.68 719.965 31.96C716.285 35.24 714.445 40.72 714.445 48.4V85H706.045V19.48H714.445V31.12ZM808.802 48.88C808.802 51.76 808.722 53.96 808.562 55.48H754.202C754.442 60.44 755.642 64.68 757.802 68.2C759.962 71.72 762.802 74.4 766.322 76.24C769.842 78 773.682 78.88 777.842 78.88C783.282 78.88 787.842 77.56 791.522 74.92C795.282 72.28 797.762 68.72 798.962 64.24H807.842C806.242 70.64 802.802 75.88 797.522 79.96C792.322 83.96 785.762 85.96 777.842 85.96C771.682 85.96 766.162 84.6 761.282 81.88C756.402 79.08 752.562 75.16 749.762 70.12C747.042 65 745.682 59.04 745.682 52.24C745.682 45.44 747.042 39.48 749.762 34.36C752.482 29.24 756.282 25.32 761.162 22.6C766.042 19.88 771.602 18.52 777.842 18.52C784.082 18.52 789.522 19.88 794.162 22.6C798.882 25.32 802.482 29 804.962 33.64C807.522 38.2 808.802 43.28 808.802 48.88ZM800.282 48.64C800.362 43.76 799.362 39.6 797.282 36.16C795.282 32.72 792.522 30.12 789.002 28.36C785.482 26.6 781.642 25.72 777.482 25.72C771.242 25.72 765.922 27.72 761.522 31.72C757.122 35.72 754.682 41.36 754.202 48.64H800.282ZM846.73 85.96C839.21 85.96 833.05 84.24 828.25 80.8C823.53 77.28 820.89 72.52 820.33 66.52H828.97C829.37 70.2 831.09 73.2 834.13 75.52C837.25 77.76 841.41 78.88 846.61 78.88C851.17 78.88 854.73 77.8 857.29 75.64C859.93 73.48 861.25 70.8 861.25 67.6C861.25 65.36 860.53 63.52 859.09 62.08C857.65 60.64 855.81 59.52 853.57 58.72C851.41 57.84 848.45 56.92 844.69 55.96C839.81 54.68 835.85 53.4 832.81 52.12C829.77 50.84 827.17 48.96 825.01 46.48C822.93 43.92 821.89 40.52 821.89 36.28C821.89 33.08 822.85 30.12 824.77 27.4C826.69 24.68 829.41 22.52 832.93 20.92C836.45 19.32 840.45 18.52 844.93 18.52C851.97 18.52 857.65 20.32 861.97 23.92C866.29 27.44 868.61 32.32 868.93 38.56H860.53C860.29 34.72 858.77 31.64 855.97 29.32C853.25 26.92 849.49 25.72 844.69 25.72C840.45 25.72 837.01 26.72 834.37 28.72C831.73 30.72 830.41 33.2 830.41 36.16C830.41 38.72 831.17 40.84 832.69 42.52C834.29 44.12 836.25 45.4 838.57 46.36C840.89 47.24 844.01 48.24 847.93 49.36C852.65 50.64 856.41 51.88 859.21 53.08C862.01 54.28 864.41 56.04 866.41 58.36C868.41 60.68 869.45 63.76 869.53 67.6C869.53 71.12 868.57 74.28 866.65 77.08C864.73 79.8 862.05 81.96 858.61 83.56C855.17 85.16 851.21 85.96 846.73 85.96Z" fill="#00263A" fill-opacity="0.03"/>
</svg>
