<svg width="731" height="90" viewBox="0 0 731 90" fill="none" xmlns="http://www.w3.org/2000/svg">
<path d="M62.755 5.11999V89H54.355V49.76H8.875V89H0.475001V5.11999H8.875V42.8H54.355V5.11999H62.755ZM110.6 89.96C104.44 89.96 98.8803 88.6 93.9203 85.88C89.0403 83.08 85.1603 79.16 82.2803 74.12C79.4803 69 78.0803 63.04 78.0803 56.24C78.0803 49.44 79.5203 43.52 82.4003 38.48C85.2803 33.36 89.2003 29.44 94.1603 26.72C99.1203 23.92 104.68 22.52 110.84 22.52C117 22.52 122.56 23.92 127.52 26.72C132.56 29.44 136.48 33.36 139.28 38.48C142.16 43.52 143.6 49.44 143.6 56.24C143.6 62.96 142.16 68.88 139.28 74C136.4 79.12 132.44 83.08 127.4 85.88C122.36 88.6 116.76 89.96 110.6 89.96ZM110.6 82.64C114.92 82.64 118.92 81.68 122.6 79.76C126.28 77.76 129.24 74.8 131.48 70.88C133.8 66.88 134.96 62 134.96 56.24C134.96 50.48 133.84 45.64 131.6 41.72C129.36 37.72 126.4 34.76 122.72 32.84C119.04 30.84 115.04 29.84 110.72 29.84C106.4 29.84 102.4 30.84 98.7203 32.84C95.0403 34.76 92.0803 37.72 89.8403 41.72C87.6803 45.64 86.6003 50.48 86.6003 56.24C86.6003 62 87.6803 66.88 89.8403 70.88C92.0803 74.8 95.0003 77.76 98.6003 79.76C102.28 81.68 106.28 82.64 110.6 82.64ZM245.313 23.48L224.793 89H216.393L198.273 34.04L180.152 89H171.633L151.113 23.48H159.633L175.953 80.48L194.313 23.48H202.713L220.833 80.6L237.033 23.48H245.313ZM298.094 5.11999V89H289.694V5.11999H298.094ZM328.036 30.56V71.24C328.036 75.24 328.796 78 330.316 79.52C331.836 81.04 334.516 81.8 338.356 81.8H346.036V89H337.036C331.116 89 326.716 87.64 323.836 84.92C320.956 82.12 319.516 77.56 319.516 71.24V30.56H310.396V23.48H319.516V7.04H328.036V23.48H346.036V30.56H328.036ZM494.579 5.11999L470.819 89H461.459L440.339 17.48L418.739 89L409.619 89.12L386.339 5.11999H395.339L414.539 78.68L436.019 5.11999H445.379L466.259 78.68L485.579 5.11999H494.579ZM536.108 89.96C529.948 89.96 524.388 88.6 519.428 85.88C514.548 83.08 510.668 79.16 507.788 74.12C504.988 69 503.588 63.04 503.588 56.24C503.588 49.44 505.028 43.52 507.908 38.48C510.788 33.36 514.708 29.44 519.668 26.72C524.628 23.92 530.188 22.52 536.348 22.52C542.508 22.52 548.068 23.92 553.028 26.72C558.068 29.44 561.988 33.36 564.788 38.48C567.668 43.52 569.108 49.44 569.108 56.24C569.108 62.96 567.668 68.88 564.788 74C561.908 79.12 557.948 83.08 552.908 85.88C547.868 88.6 542.268 89.96 536.108 89.96ZM536.108 82.64C540.428 82.64 544.428 81.68 548.108 79.76C551.788 77.76 554.748 74.8 556.988 70.88C559.308 66.88 560.468 62 560.468 56.24C560.468 50.48 559.348 45.64 557.108 41.72C554.868 37.72 551.908 34.76 548.228 32.84C544.548 30.84 540.548 29.84 536.228 29.84C531.908 29.84 527.908 30.84 524.228 32.84C520.548 34.76 517.588 37.72 515.348 41.72C513.188 45.64 512.108 50.48 512.108 56.24C512.108 62 513.188 66.88 515.348 70.88C517.588 74.8 520.508 77.76 524.108 79.76C527.788 81.68 531.788 82.64 536.108 82.64ZM592.82 35.12C594.66 31.04 597.46 27.88 601.22 25.64C605.06 23.4 609.74 22.28 615.26 22.28V31.04H612.98C606.9 31.04 602.02 32.68 598.34 35.96C594.66 39.24 592.82 44.72 592.82 52.4V89H584.42V23.48H592.82V35.12ZM663.297 89L636.297 59.6V89H627.897V0.199999H636.297V52.76L662.697 23.48H674.457L643.377 56.12L674.697 89H663.297ZM708.113 89.96C700.593 89.96 694.433 88.24 689.633 84.8C684.913 81.28 682.273 76.52 681.713 70.52H690.353C690.753 74.2 692.473 77.2 695.513 79.52C698.633 81.76 702.793 82.88 707.993 82.88C712.553 82.88 716.113 81.8 718.673 79.64C721.313 77.48 722.633 74.8 722.633 71.6C722.633 69.36 721.913 67.52 720.473 66.08C719.033 64.64 717.193 63.52 714.953 62.72C712.793 61.84 709.833 60.92 706.073 59.96C701.193 58.68 697.233 57.4 694.193 56.12C691.153 54.84 688.553 52.96 686.393 50.48C684.313 47.92 683.273 44.52 683.273 40.28C683.273 37.08 684.233 34.12 686.153 31.4C688.073 28.68 690.793 26.52 694.313 24.92C697.833 23.32 701.833 22.52 706.313 22.52C713.353 22.52 719.033 24.32 723.353 27.92C727.673 31.44 729.993 36.32 730.313 42.56H721.913C721.673 38.72 720.153 35.64 717.353 33.32C714.633 30.92 710.873 29.72 706.073 29.72C701.833 29.72 698.393 30.72 695.753 32.72C693.113 34.72 691.793 37.2 691.793 40.16C691.793 42.72 692.553 44.84 694.073 46.52C695.673 48.12 697.633 49.4 699.953 50.36C702.273 51.24 705.393 52.24 709.313 53.36C714.033 54.64 717.793 55.88 720.593 57.08C723.393 58.28 725.793 60.04 727.793 62.36C729.793 64.68 730.833 67.76 730.913 71.6C730.913 75.12 729.953 78.28 728.033 81.08C726.113 83.8 723.433 85.96 719.993 87.56C716.553 89.16 712.593 89.96 708.113 89.96Z" fill="#00263A" fill-opacity="0.03"/>
</svg>
