<svg width="45" height="45" viewBox="0 0 45 45" fill="none" xmlns="http://www.w3.org/2000/svg">
<path d="M22.8041 18.7686C20.6531 18.7482 18.8979 20.4837 18.8776 22.6479C18.8573 24.8122 20.5821 26.5783 22.733 26.5987C24.884 26.6191 26.6392 24.8836 26.6595 22.7194C26.6798 20.5551 24.9448 18.789 22.8041 18.7686ZM22.8041 18.7686C20.6531 18.7482 18.8979 20.4837 18.8776 22.6479C18.8573 24.8122 20.5821 26.5783 22.733 26.5987C24.884 26.6191 26.6392 24.8836 26.6595 22.7194C26.6798 20.5551 24.9448 18.789 22.8041 18.7686ZM32.1992 17.0127C31.976 14.9403 30.7078 13.5622 28.6583 13.2457C26.6697 12.9394 19.1921 12.9701 17.1122 13.2049C15.0627 13.4295 13.7031 14.7055 13.3987 16.7473C13.0741 18.9217 13.1349 27.0377 13.3987 28.6609C13.6828 30.3657 14.6365 31.5295 16.3208 31.9991C18.076 32.4891 26.5276 32.3768 28.4148 32.1624C30.4744 31.9378 31.834 30.6618 32.1485 28.5996C32.463 26.517 32.4123 18.9524 32.1992 17.0127ZM22.7635 28.7425C19.4457 28.7425 16.7571 26.027 16.7571 22.6888C16.7571 19.3505 19.4559 16.635 22.7736 16.635C26.0913 16.635 28.7902 19.3505 28.78 22.6888C28.78 26.0372 26.0914 28.7425 22.7635 28.7425ZM29.0235 17.8192C28.2423 17.8192 27.6132 17.1863 27.6132 16.4002C27.6132 15.6141 28.2524 14.9812 29.0235 14.9914C29.8048 14.9914 30.4338 15.6243 30.4338 16.4104C30.4237 17.1863 29.7946 17.8192 29.0235 17.8192ZM22.8041 18.7686C20.6531 18.7482 18.8979 20.4837 18.8776 22.6479C18.8573 24.8122 20.5821 26.5783 22.733 26.5987C24.884 26.6191 26.6392 24.8836 26.6595 22.7194C26.6798 20.5551 24.9448 18.789 22.8041 18.7686ZM22.8041 18.7686C20.6531 18.7482 18.8979 20.4837 18.8776 22.6479C18.8573 24.8122 20.5821 26.5783 22.733 26.5987C24.884 26.6191 26.6392 24.8836 26.6595 22.7194C26.6798 20.5551 24.9448 18.789 22.8041 18.7686ZM22.8041 18.7686C20.6531 18.7482 18.8979 20.4837 18.8776 22.6479C18.8573 24.8122 20.5821 26.5783 22.733 26.5987C24.884 26.6191 26.6392 24.8836 26.6595 22.7194C26.6798 20.5551 24.9448 18.789 22.8041 18.7686ZM22.8041 18.7686C20.6531 18.7482 18.8979 20.4837 18.8776 22.6479C18.8573 24.8122 20.5821 26.5783 22.733 26.5987C24.884 26.6191 26.6392 24.8836 26.6595 22.7194C26.6798 20.5551 24.9448 18.789 22.8041 18.7686ZM22.8041 18.7686C20.6531 18.7482 18.8979 20.4837 18.8776 22.6479C18.8573 24.8122 20.5821 26.5783 22.733 26.5987C24.884 26.6191 26.6392 24.8836 26.6595 22.7194C26.6798 20.5551 24.9448 18.789 22.8041 18.7686ZM32.1992 17.0127C31.976 14.9403 30.7078 13.5622 28.6583 13.2457C26.6697 12.9394 19.1921 12.9701 17.1122 13.2049C15.0627 13.4295 13.7031 14.7055 13.3987 16.7473C13.0741 18.9217 13.1349 27.0377 13.3987 28.6609C13.6828 30.3657 14.6365 31.5295 16.3208 31.9991C18.076 32.4891 26.5276 32.3768 28.4148 32.1624C30.4744 31.9378 31.834 30.6618 32.1485 28.5996C32.463 26.517 32.4123 18.9524 32.1992 17.0127ZM22.7635 28.7425C19.4457 28.7425 16.7571 26.027 16.7571 22.6888C16.7571 19.3505 19.4559 16.635 22.7736 16.635C26.0913 16.635 28.7902 19.3505 28.78 22.6888C28.78 26.0372 26.0914 28.7425 22.7635 28.7425ZM29.0235 17.8192C28.2423 17.8192 27.6132 17.1863 27.6132 16.4002C27.6132 15.6141 28.2524 14.9812 29.0235 14.9914C29.8048 14.9914 30.4338 15.6243 30.4338 16.4104C30.4237 17.1863 29.7946 17.8192 29.0235 17.8192ZM22.8041 18.7686C20.6531 18.7482 18.8979 20.4837 18.8776 22.6479C18.8573 24.8122 20.5821 26.5783 22.733 26.5987C24.884 26.6191 26.6392 24.8836 26.6595 22.7194C26.6798 20.5551 24.9448 18.789 22.8041 18.7686ZM22.8041 18.7686C20.6531 18.7482 18.8979 20.4837 18.8776 22.6479C18.8573 24.8122 20.5821 26.5783 22.733 26.5987C24.884 26.6191 26.6392 24.8836 26.6595 22.7194C26.6798 20.5551 24.9448 18.789 22.8041 18.7686ZM22.8041 18.7686C20.6531 18.7482 18.8979 20.4837 18.8776 22.6479C18.8573 24.8122 20.5821 26.5783 22.733 26.5987C24.884 26.6191 26.6392 24.8836 26.6595 22.7194C26.6798 20.5551 24.9448 18.789 22.8041 18.7686ZM22.8041 18.7686C20.6531 18.7482 18.8979 20.4837 18.8776 22.6479C18.8573 24.8122 20.5821 26.5783 22.733 26.5987C24.884 26.6191 26.6392 24.8836 26.6595 22.7194C26.6798 20.5551 24.9448 18.789 22.8041 18.7686ZM22.8041 18.7686C20.6531 18.7482 18.8979 20.4837 18.8776 22.6479C18.8573 24.8122 20.5821 26.5783 22.733 26.5987C24.884 26.6191 26.6392 24.8836 26.6595 22.7194C26.6798 20.5551 24.9448 18.789 22.8041 18.7686ZM32.1992 17.0127C31.976 14.9403 30.7078 13.5622 28.6583 13.2457C26.6697 12.9394 19.1921 12.9701 17.1122 13.2049C15.0627 13.4295 13.7031 14.7055 13.3987 16.7473C13.0741 18.9217 13.1349 27.0377 13.3987 28.6609C13.6828 30.3657 14.6365 31.5295 16.3208 31.9991C18.076 32.4891 26.5276 32.3768 28.4148 32.1624C30.4744 31.9378 31.834 30.6618 32.1485 28.5996C32.463 26.517 32.4123 18.9524 32.1992 17.0127ZM22.7635 28.7425C19.4457 28.7425 16.7571 26.027 16.7571 22.6888C16.7571 19.3505 19.4559 16.635 22.7736 16.635C26.0913 16.635 28.7902 19.3505 28.78 22.6888C28.78 26.0372 26.0914 28.7425 22.7635 28.7425ZM29.0235 17.8192C28.2423 17.8192 27.6132 17.1863 27.6132 16.4002C27.6132 15.6141 28.2524 14.9812 29.0235 14.9914C29.8048 14.9914 30.4338 15.6243 30.4338 16.4104C30.4237 17.1863 29.7946 17.8192 29.0235 17.8192ZM22.8041 18.7686C20.6531 18.7482 18.8979 20.4837 18.8776 22.6479C18.8573 24.8122 20.5821 26.5783 22.733 26.5987C24.884 26.6191 26.6392 24.8836 26.6595 22.7194C26.6798 20.5551 24.9448 18.789 22.8041 18.7686ZM32.1992 17.0127C31.976 14.9403 30.7078 13.5622 28.6583 13.2457C26.6697 12.9394 19.1921 12.9701 17.1122 13.2049C15.0627 13.4295 13.7031 14.7055 13.3987 16.7473C13.0741 18.9217 13.1349 27.0377 13.3987 28.6609C13.6828 30.3657 14.6365 31.5295 16.3208 31.9991C18.076 32.4891 26.5276 32.3768 28.4148 32.1624C30.4744 31.9378 31.834 30.6618 32.1485 28.5996C32.463 26.517 32.4123 18.9524 32.1992 17.0127ZM22.7635 28.7425C19.4457 28.7425 16.7571 26.027 16.7571 22.6888C16.7571 19.3505 19.4559 16.635 22.7736 16.635C26.0913 16.635 28.7902 19.3505 28.78 22.6888C28.78 26.0372 26.0914 28.7425 22.7635 28.7425ZM29.0235 17.8192C28.2423 17.8192 27.6132 17.1863 27.6132 16.4002C27.6132 15.6141 28.2524 14.9812 29.0235 14.9914C29.8048 14.9914 30.4338 15.6243 30.4338 16.4104C30.4237 17.1863 29.7946 17.8192 29.0235 17.8192ZM22.8041 18.7686C20.6531 18.7482 18.8979 20.4837 18.8776 22.6479C18.8573 24.8122 20.5821 26.5783 22.733 26.5987C24.884 26.6191 26.6392 24.8836 26.6595 22.7194C26.6798 20.5551 24.9448 18.789 22.8041 18.7686ZM22.5403 0.362305C10.3042 0.362305 0.391602 10.3362 0.391602 22.6377C0.391602 34.9392 10.3042 44.9233 22.5403 44.9233C34.7763 44.9233 44.6788 34.9494 44.6788 22.6377C44.6788 10.326 34.7662 0.362305 22.5403 0.362305ZM34.1473 29.498C33.4472 32.1829 31.7122 33.7856 29.0134 34.2246C26.9741 34.5513 17.8731 34.6125 16.0265 34.1327C13.348 33.4385 11.7551 31.7031 11.3087 28.9875C10.984 26.9968 10.8724 17.7477 11.4304 15.7366C12.1609 13.1232 13.8857 11.5817 16.5135 11.1529C18.8065 10.7752 25.3507 10.8671 28.1104 11.0202C29.7338 11.1121 31.2049 11.6225 32.4123 12.7761C33.5588 13.8786 34.1473 15.2568 34.3096 16.8085C34.4922 18.6665 34.685 27.4358 34.1473 29.498ZM28.6583 13.2457C26.6697 12.9394 19.1921 12.9701 17.1122 13.2049C15.0627 13.4295 13.7031 14.7055 13.3987 16.7473C13.0741 18.9217 13.1349 27.0377 13.3987 28.6609C13.6828 30.3657 14.6365 31.5295 16.3208 31.9991C18.076 32.4891 26.5276 32.3768 28.4148 32.1624C30.4744 31.9378 31.834 30.6618 32.1485 28.5996C32.463 26.517 32.4123 18.9524 32.1992 17.0127C31.976 14.9403 30.7078 13.5622 28.6583 13.2457ZM22.7635 28.7425C19.4457 28.7425 16.7571 26.027 16.7571 22.6888C16.7571 19.3505 19.4559 16.635 22.7736 16.635C26.0913 16.635 28.7902 19.3505 28.78 22.6888C28.78 26.0372 26.0914 28.7425 22.7635 28.7425ZM29.0235 17.8192C28.2423 17.8192 27.6132 17.1863 27.6132 16.4002C27.6132 15.6141 28.2524 14.9812 29.0235 14.9914C29.8048 14.9914 30.4338 15.6243 30.4338 16.4104C30.4237 17.1863 29.7946 17.8192 29.0235 17.8192ZM22.8041 18.7686C20.6531 18.7482 18.8979 20.4837 18.8776 22.6479C18.8573 24.8122 20.5821 26.5783 22.733 26.5987C24.884 26.6191 26.6392 24.8836 26.6595 22.7194C26.6798 20.5551 24.9448 18.789 22.8041 18.7686ZM22.8041 18.7686C20.6531 18.7482 18.8979 20.4837 18.8776 22.6479C18.8573 24.8122 20.5821 26.5783 22.733 26.5987C24.884 26.6191 26.6392 24.8836 26.6595 22.7194C26.6798 20.5551 24.9448 18.789 22.8041 18.7686ZM22.8041 18.7686C20.6531 18.7482 18.8979 20.4837 18.8776 22.6479C18.8573 24.8122 20.5821 26.5783 22.733 26.5987C24.884 26.6191 26.6392 24.8836 26.6595 22.7194C26.6798 20.5551 24.9448 18.789 22.8041 18.7686ZM32.1992 17.0127C31.976 14.9403 30.7078 13.5622 28.6583 13.2457C26.6697 12.9394 19.1921 12.9701 17.1122 13.2049C15.0627 13.4295 13.7031 14.7055 13.3987 16.7473C13.0741 18.9217 13.1349 27.0377 13.3987 28.6609C13.6828 30.3657 14.6365 31.5295 16.3208 31.9991C18.076 32.4891 26.5276 32.3768 28.4148 32.1624C30.4744 31.9378 31.834 30.6618 32.1485 28.5996C32.463 26.517 32.4123 18.9524 32.1992 17.0127ZM22.7635 28.7425C19.4457 28.7425 16.7571 26.027 16.7571 22.6888C16.7571 19.3505 19.4559 16.635 22.7736 16.635C26.0913 16.635 28.7902 19.3505 28.78 22.6888C28.78 26.0372 26.0914 28.7425 22.7635 28.7425ZM29.0235 17.8192C28.2423 17.8192 27.6132 17.1863 27.6132 16.4002C27.6132 15.6141 28.2524 14.9812 29.0235 14.9914C29.8048 14.9914 30.4338 15.6243 30.4338 16.4104C30.4237 17.1863 29.7946 17.8192 29.0235 17.8192ZM22.8041 18.7686C20.6531 18.7482 18.8979 20.4837 18.8776 22.6479C18.8573 24.8122 20.5821 26.5783 22.733 26.5987C24.884 26.6191 26.6392 24.8836 26.6595 22.7194C26.6798 20.5551 24.9448 18.789 22.8041 18.7686ZM22.8041 18.7686C20.6531 18.7482 18.8979 20.4837 18.8776 22.6479C18.8573 24.8122 20.5821 26.5783 22.733 26.5987C24.884 26.6191 26.6392 24.8836 26.6595 22.7194C26.6798 20.5551 24.9448 18.789 22.8041 18.7686ZM22.8041 18.7686C20.6531 18.7482 18.8979 20.4837 18.8776 22.6479C18.8573 24.8122 20.5821 26.5783 22.733 26.5987C24.884 26.6191 26.6392 24.8836 26.6595 22.7194C26.6798 20.5551 24.9448 18.789 22.8041 18.7686ZM32.1992 17.0127C31.976 14.9403 30.7078 13.5622 28.6583 13.2457C26.6697 12.9394 19.1921 12.9701 17.1122 13.2049C15.0627 13.4295 13.7031 14.7055 13.3987 16.7473C13.0741 18.9217 13.1349 27.0377 13.3987 28.6609C13.6828 30.3657 14.6365 31.5295 16.3208 31.9991C18.076 32.4891 26.5276 32.3768 28.4148 32.1624C30.4744 31.9378 31.834 30.6618 32.1485 28.5996C32.463 26.517 32.4123 18.9524 32.1992 17.0127ZM22.7635 28.7425C19.4457 28.7425 16.7571 26.027 16.7571 22.6888C16.7571 19.3505 19.4559 16.635 22.7736 16.635C26.0913 16.635 28.7902 19.3505 28.78 22.6888C28.78 26.0372 26.0914 28.7425 22.7635 28.7425ZM29.0235 17.8192C28.2423 17.8192 27.6132 17.1863 27.6132 16.4002C27.6132 15.6141 28.2524 14.9812 29.0235 14.9914C29.8048 14.9914 30.4338 15.6243 30.4338 16.4104C30.4237 17.1863 29.7946 17.8192 29.0235 17.8192ZM22.8041 18.7686C20.6531 18.7482 18.8979 20.4837 18.8776 22.6479C18.8573 24.8122 20.5821 26.5783 22.733 26.5987C24.884 26.6191 26.6392 24.8836 26.6595 22.7194C26.6798 20.5551 24.9448 18.789 22.8041 18.7686ZM22.8041 18.7686C20.6531 18.7482 18.8979 20.4837 18.8776 22.6479C18.8573 24.8122 20.5821 26.5783 22.733 26.5987C24.884 26.6191 26.6392 24.8836 26.6595 22.7194C26.6798 20.5551 24.9448 18.789 22.8041 18.7686ZM22.8041 18.7686C20.6531 18.7482 18.8979 20.4837 18.8776 22.6479C18.8573 24.8122 20.5821 26.5783 22.733 26.5987C24.884 26.6191 26.6392 24.8836 26.6595 22.7194C26.6798 20.5551 24.9448 18.789 22.8041 18.7686Z" fill="white"/>
</svg>
