<svg width="995" height="90" viewBox="0 0 995 90" fill="none" xmlns="http://www.w3.org/2000/svg">
<path d="M9.09766 5.11999V89H0.697657V5.11999H9.09766ZM58.8395 22.28C66.6795 22.28 73.0795 24.72 78.0395 29.6C82.9995 34.4 85.4795 41.4 85.4795 50.6V89H77.1995V51.56C77.1995 44.44 75.3995 39 71.7995 35.24C68.2795 31.48 63.4395 29.6 57.2795 29.6C50.9595 29.6 45.9195 31.6 42.1595 35.6C38.3995 39.6 36.5195 45.48 36.5195 53.24V89H28.1195V23.48H36.5195V34.64C38.5995 30.64 41.5995 27.6 45.5195 25.52C49.4395 23.36 53.8795 22.28 58.8395 22.28ZM127.337 80.84L149.417 23.48H158.297L132.017 89H122.537L96.257 23.48H105.257L127.337 80.84ZM228.962 52.88C228.962 55.76 228.882 57.96 228.722 59.48H174.362C174.602 64.44 175.802 68.68 177.962 72.2C180.122 75.72 182.962 78.4 186.482 80.24C190.002 82 193.842 82.88 198.002 82.88C203.442 82.88 208.002 81.56 211.682 78.92C215.442 76.28 217.922 72.72 219.122 68.24H228.002C226.402 74.64 222.962 79.88 217.682 83.96C212.482 87.96 205.922 89.96 198.002 89.96C191.842 89.96 186.322 88.6 181.442 85.88C176.562 83.08 172.722 79.16 169.922 74.12C167.202 69 165.842 63.04 165.842 56.24C165.842 49.44 167.202 43.48 169.922 38.36C172.642 33.24 176.442 29.32 181.322 26.6C186.202 23.88 191.762 22.52 198.002 22.52C204.242 22.52 209.682 23.88 214.322 26.6C219.042 29.32 222.642 33 225.122 37.64C227.682 42.2 228.962 47.28 228.962 52.88ZM220.442 52.64C220.522 47.76 219.522 43.6 217.442 40.16C215.442 36.72 212.682 34.12 209.162 32.36C205.642 30.6 201.802 29.72 197.642 29.72C191.402 29.72 186.082 31.72 181.682 35.72C177.282 39.72 174.842 45.36 174.362 52.64H220.442ZM266.89 89.96C259.37 89.96 253.21 88.24 248.41 84.8C243.69 81.28 241.05 76.52 240.49 70.52H249.13C249.53 74.2 251.25 77.2 254.29 79.52C257.41 81.76 261.57 82.88 266.77 82.88C271.33 82.88 274.89 81.8 277.45 79.64C280.09 77.48 281.41 74.8 281.41 71.6C281.41 69.36 280.69 67.52 279.25 66.08C277.81 64.64 275.97 63.52 273.73 62.72C271.57 61.84 268.61 60.92 264.85 59.96C259.97 58.68 256.01 57.4 252.97 56.12C249.93 54.84 247.33 52.96 245.17 50.48C243.09 47.92 242.05 44.52 242.05 40.28C242.05 37.08 243.01 34.12 244.93 31.4C246.85 28.68 249.57 26.52 253.09 24.92C256.61 23.32 260.61 22.52 265.09 22.52C272.13 22.52 277.81 24.32 282.13 27.92C286.45 31.44 288.77 36.32 289.09 42.56H280.69C280.45 38.72 278.93 35.64 276.13 33.32C273.41 30.92 269.65 29.72 264.85 29.72C260.61 29.72 257.17 30.72 254.53 32.72C251.89 34.72 250.57 37.2 250.57 40.16C250.57 42.72 251.33 44.84 252.85 46.52C254.45 48.12 256.41 49.4 258.73 50.36C261.05 51.24 264.17 52.24 268.09 53.36C272.81 54.64 276.57 55.88 279.37 57.08C282.17 58.28 284.57 60.04 286.57 62.36C288.57 64.68 289.61 67.76 289.69 71.6C289.69 75.12 288.73 78.28 286.81 81.08C284.89 83.8 282.21 85.96 278.77 87.56C275.33 89.16 271.37 89.96 266.89 89.96ZM316.422 30.56V71.24C316.422 75.24 317.182 78 318.702 79.52C320.222 81.04 322.902 81.8 326.742 81.8H334.422V89H325.422C319.502 89 315.102 87.64 312.222 84.92C309.342 82.12 307.902 77.56 307.902 71.24V30.56H298.782V23.48H307.902V7.04H316.422V23.48H334.422V30.56H316.422ZM426.276 22.28C433.956 22.28 440.196 24.72 444.996 29.6C449.876 34.4 452.316 41.4 452.316 50.6V89H444.036V51.56C444.036 44.44 442.316 39 438.876 35.24C435.436 31.48 430.756 29.6 424.836 29.6C418.676 29.6 413.756 31.64 410.076 35.72C406.396 39.8 404.556 45.72 404.556 53.48V89H396.276V51.56C396.276 44.44 394.556 39 391.116 35.24C387.676 31.48 382.956 29.6 376.956 29.6C370.796 29.6 365.876 31.64 362.196 35.72C358.516 39.8 356.676 45.72 356.676 53.48V89H348.276V23.48H356.676V34.76C358.756 30.68 361.716 27.6 365.556 25.52C369.396 23.36 373.676 22.28 378.396 22.28C384.076 22.28 389.036 23.64 393.276 26.36C397.596 29.08 400.716 33.08 402.636 38.36C404.396 33.16 407.396 29.2 411.636 26.48C415.956 23.68 420.836 22.28 426.276 22.28ZM530.251 52.88C530.251 55.76 530.171 57.96 530.011 59.48H475.651C475.891 64.44 477.091 68.68 479.251 72.2C481.411 75.72 484.251 78.4 487.771 80.24C491.291 82 495.131 82.88 499.291 82.88C504.731 82.88 509.291 81.56 512.971 78.92C516.731 76.28 519.211 72.72 520.411 68.24H529.291C527.691 74.64 524.251 79.88 518.971 83.96C513.771 87.96 507.211 89.96 499.291 89.96C493.131 89.96 487.611 88.6 482.731 85.88C477.851 83.08 474.011 79.16 471.211 74.12C468.491 69 467.131 63.04 467.131 56.24C467.131 49.44 468.491 43.48 471.211 38.36C473.931 33.24 477.731 29.32 482.611 26.6C487.491 23.88 493.051 22.52 499.291 22.52C505.531 22.52 510.971 23.88 515.611 26.6C520.331 29.32 523.931 33 526.411 37.64C528.971 42.2 530.251 47.28 530.251 52.88ZM521.731 52.64C521.811 47.76 520.811 43.6 518.731 40.16C516.731 36.72 513.971 34.12 510.451 32.36C506.931 30.6 503.091 29.72 498.931 29.72C492.691 29.72 487.371 31.72 482.971 35.72C478.571 39.72 476.131 45.36 475.651 52.64H521.731ZM576.34 22.28C584.18 22.28 590.58 24.72 595.54 29.6C600.5 34.4 602.98 41.4 602.98 50.6V89H594.7V51.56C594.7 44.44 592.9 39 589.3 35.24C585.78 31.48 580.94 29.6 574.78 29.6C568.46 29.6 563.42 31.6 559.66 35.6C555.9 39.6 554.02 45.48 554.02 53.24V89H545.62V23.48H554.02V34.64C556.1 30.64 559.1 27.6 563.02 25.52C566.94 23.36 571.38 22.28 576.34 22.28ZM632.477 30.56V71.24C632.477 75.24 633.237 78 634.757 79.52C636.277 81.04 638.957 81.8 642.797 81.8H650.477V89H641.477C635.557 89 631.157 87.64 628.277 84.92C625.397 82.12 623.957 77.56 623.957 71.24V30.56H614.837V23.48H623.957V7.04H632.477V23.48H650.477V30.56H632.477ZM750.9 29.24C750.9 36.44 748.54 42.24 743.82 46.64C739.1 51.04 732.02 53.24 722.58 53.24H705.66V89H697.26V5.11999H722.58C731.94 5.11999 738.98 7.31999 743.7 11.72C748.5 16.12 750.9 21.96 750.9 29.24ZM722.58 46.04C735.7 46.04 742.26 40.44 742.26 29.24C742.26 23.64 740.7 19.4 737.58 16.52C734.46 13.64 729.46 12.2 722.58 12.2H705.66V46.04H722.58ZM773.395 0.199999V89H764.995V0.199999H773.395ZM788.576 56.12C788.576 49.4 789.896 43.52 792.536 38.48C795.256 33.36 798.976 29.44 803.696 26.72C808.496 23.92 813.896 22.52 819.896 22.52C826.136 22.52 831.496 23.96 835.976 26.84C840.536 29.72 843.816 33.4 845.816 37.88V23.48H854.216V89H845.816V74.48C843.736 78.96 840.416 82.68 835.856 85.64C831.376 88.52 826.016 89.96 819.776 89.96C813.856 89.96 808.496 88.56 803.696 85.76C798.976 82.96 795.256 79 792.536 73.88C789.896 68.76 788.576 62.84 788.576 56.12ZM845.816 56.24C845.816 50.96 844.736 46.32 842.576 42.32C840.416 38.32 837.456 35.24 833.696 33.08C830.016 30.92 825.936 29.84 821.456 29.84C816.816 29.84 812.656 30.88 808.976 32.96C805.296 35.04 802.376 38.08 800.216 42.08C798.136 46 797.096 50.68 797.096 56.12C797.096 61.48 798.136 66.2 800.216 70.28C802.376 74.28 805.296 77.36 808.976 79.52C812.656 81.6 816.816 82.64 821.456 82.64C825.936 82.64 830.016 81.56 833.696 79.4C837.456 77.24 840.416 74.16 842.576 70.16C844.736 66.16 845.816 61.52 845.816 56.24ZM904.113 22.28C911.953 22.28 918.353 24.72 923.313 29.6C928.273 34.4 930.753 41.4 930.753 50.6V89H922.473V51.56C922.473 44.44 920.673 39 917.073 35.24C913.553 31.48 908.713 29.6 902.553 29.6C896.233 29.6 891.193 31.6 887.433 35.6C883.673 39.6 881.793 45.48 881.793 53.24V89H873.393V23.48H881.793V34.64C883.873 30.64 886.873 27.6 890.793 25.52C894.713 23.36 899.153 22.28 904.113 22.28ZM971.89 89.96C964.37 89.96 958.21 88.24 953.41 84.8C948.69 81.28 946.05 76.52 945.49 70.52H954.13C954.53 74.2 956.25 77.2 959.29 79.52C962.41 81.76 966.57 82.88 971.77 82.88C976.33 82.88 979.89 81.8 982.45 79.64C985.09 77.48 986.41 74.8 986.41 71.6C986.41 69.36 985.69 67.52 984.25 66.08C982.81 64.64 980.97 63.52 978.73 62.72C976.57 61.84 973.61 60.92 969.85 59.96C964.97 58.68 961.01 57.4 957.97 56.12C954.93 54.84 952.33 52.96 950.17 50.48C948.09 47.92 947.05 44.52 947.05 40.28C947.05 37.08 948.01 34.12 949.93 31.4C951.85 28.68 954.57 26.52 958.09 24.92C961.61 23.32 965.61 22.52 970.09 22.52C977.13 22.52 982.81 24.32 987.13 27.92C991.45 31.44 993.77 36.32 994.09 42.56H985.69C985.45 38.72 983.93 35.64 981.13 33.32C978.41 30.92 974.65 29.72 969.85 29.72C965.61 29.72 962.17 30.72 959.53 32.72C956.89 34.72 955.57 37.2 955.57 40.16C955.57 42.72 956.33 44.84 957.85 46.52C959.45 48.12 961.41 49.4 963.73 50.36C966.05 51.24 969.17 52.24 973.09 53.36C977.81 54.64 981.57 55.88 984.37 57.08C987.17 58.28 989.57 60.04 991.57 62.36C993.57 64.68 994.61 67.76 994.69 71.6C994.69 75.12 993.73 78.28 991.81 81.08C989.89 83.8 987.21 85.96 983.77 87.56C980.33 89.16 976.37 89.96 971.89 89.96Z" fill="#00263A" fill-opacity="0.03"/>
</svg>
