<svg width="181" height="55" viewBox="0 0 181 55" fill="none" xmlns="http://www.w3.org/2000/svg">
<g opacity="0.5">
<path d="M42.3943 10.6828C40.0414 7.82757 37.0145 7.22007 35.2415 7.13232H34.9381C34.5403 7.13232 34.1561 7.14582 33.7785 7.17282C33.7718 7.17282 33.765 7.17282 33.7583 7.17282C31.1628 7.37532 29.0797 8.25957 27.5358 9.81207C24.6572 12.7213 24.5493 17.1021 24.5493 17.4666V25.6813C24.5493 7.12557 43.9785 13.2073 43.9785 13.2073C43.5066 12.3298 42.974 11.4861 42.3943 10.6828Z" fill="#EFEFEF"/>
<path d="M34.9384 4.40555H36.6103C32.8754 1.85405 28.3586 0.362305 23.4912 0.362305C18.6238 0.362305 14.1069 1.85405 10.3721 4.40555H12.044C15.7788 4.40555 18.7788 5.52605 20.9563 7.72655C22.1631 8.94155 22.9586 10.3388 23.4912 11.6753C24.0238 10.3388 24.8193 8.94155 26.026 7.72655C28.2035 5.52605 31.1968 4.40555 34.9384 4.40555Z" fill="#EFEFEF"/>
<path d="M13.2373 7.17966C13.2373 7.17966 13.2238 7.17966 13.2171 7.17966C12.8396 7.15266 12.4553 7.13916 12.0575 7.13916H11.7542C9.97439 7.22691 6.95417 7.83441 4.60136 10.6897C4.02158 11.4929 3.489 12.3367 3.01709 13.2142C3.01709 13.2142 22.4463 7.13916 22.4463 25.6882V17.4734C22.4463 17.1022 22.3384 12.7214 19.4598 9.81891C17.9227 8.26641 15.8328 7.38216 13.2373 7.17966Z" fill="#EFEFEF"/>
<path d="M46.7429 23.5757V38.6957C46.7429 42.172 43.4126 44.9867 39.3002 44.9867C34.298 44.9867 29.9767 41.4834 28.9452 36.5965L26.9092 26.9372C26.4036 24.5207 26.7474 21.9895 27.9811 19.8497C28.48 18.9925 29.1407 18.1352 30.0238 17.3725C32.107 15.5837 35.0531 14.6792 38.7811 14.6792C38.7811 14.6792 45.3407 14.8345 46.534 20.734C46.6283 21.3685 46.689 22.0165 46.716 22.6645C46.7295 22.9615 46.7362 23.2652 46.7362 23.569L46.7429 23.5757Z" fill="#EFEFEF"/>
<path d="M0.25293 23.5757V38.6957C0.25293 42.172 3.58327 44.9867 7.69563 44.9867C12.6979 44.9867 17.0192 41.4834 18.0507 36.5965L20.0866 26.9372C20.5923 24.5207 20.2484 21.9895 19.0147 19.8497C18.5159 18.9925 17.8552 18.1352 16.972 17.3725C14.8889 15.5837 11.9428 14.6792 8.21473 14.6792C8.21473 14.6792 1.65518 14.8345 0.461918 20.734C0.367536 21.3685 0.306862 22.0165 0.279896 22.6645C0.259671 22.9682 0.25293 23.2719 0.25293 23.5757Z" fill="#EFEFEF"/>
<path d="M23.4979 34.0923C23.2552 40.4238 17.7676 43.1845 17.7676 48.1998C17.7676 51.271 20.4507 54.0385 23.4979 54.0385C26.5451 54.0385 29.2283 51.2643 29.2283 48.1998C29.2283 43.1913 23.7474 40.4238 23.4979 34.0923Z" fill="#EFEFEF"/>
<path d="M65.3362 22.1582C66.1721 22.3945 67.1159 22.5092 68.1339 22.5092C71.3968 22.5092 72.7519 21.3685 72.7519 19.222C72.7519 17.6627 72.0643 16.7987 70.507 15.8942L68.0395 14.4632C67.244 14.0042 67.0216 13.768 67.0216 13.3225C67.0216 12.661 67.5204 12.4585 68.7811 12.4585C69.6912 12.4585 70.4463 12.553 71.1002 12.7555C71.9699 12.9917 72.1923 12.8095 72.1923 11.9252V11.743C72.1923 10.9195 71.9901 10.6967 71.1002 10.4537C70.3923 10.2512 69.6171 10.1567 68.7811 10.1567C65.7609 10.1567 64.4598 11.1827 64.4598 13.2415C64.4598 14.5847 65.0935 15.6107 66.3339 16.3262L68.707 17.7032C69.8935 18.385 70.1901 18.6752 70.1901 19.2085C70.1901 19.9442 69.6508 20.2007 68.1676 20.2007C67.2238 20.2007 66.2935 20.0725 65.3496 19.8295C64.5137 19.6067 64.271 19.8295 64.271 20.6935V20.8757C64.271 21.6992 64.453 21.9017 65.3294 22.1447L65.3362 22.1582Z" fill="#EFEFEF"/>
<path d="M77.9094 22.5093C80.7071 22.5093 81.9341 21.5373 81.9341 19.5528V16.0428C81.9341 13.7613 80.3566 12.8838 77.4442 12.8838C76.9049 12.8838 76.406 12.9175 75.9408 12.9783C75.1453 13.1065 74.9364 13.309 74.9364 14.0988V14.173C74.9364 14.983 75.1588 15.1653 75.9746 15.037C76.5274 14.9628 77.0667 14.929 77.5858 14.929C78.8667 14.929 79.5139 15.1653 79.5139 16.0495V16.7515H77.6397C75.1386 16.7515 73.8779 17.7033 73.8779 19.6203C73.8779 21.5373 75.1049 22.5228 77.9026 22.5228L77.9094 22.5093ZM77.6128 18.5403H79.5206V19.4245C79.4262 20.4168 78.8195 20.5248 77.8689 20.5113C76.9588 20.5315 76.3656 20.437 76.2914 19.5528C76.2914 18.871 76.7364 18.5403 77.606 18.5403H77.6128Z" fill="#EFEFEF"/>
<path d="M84.7858 22.2865H85.1363C85.9723 22.2865 86.1745 22.084 86.1745 21.2605V17.3657C86.1745 15.6917 86.9363 15.1382 88.1768 15.1382C89.215 15.1382 89.7341 15.4892 89.7341 16.4612V21.2605C89.7341 22.084 89.9363 22.2865 90.7723 22.2865H91.1228C91.9588 22.2865 92.161 22.084 92.161 21.2605V16.0427C92.161 14.9222 91.8442 14.1122 91.2374 13.6195C90.624 13.12 89.8824 12.8837 89.0127 12.8837C87.7723 12.8837 86.8217 13.2347 86.1745 13.93V10.4537C86.1745 9.63023 85.9723 9.42773 85.1363 9.42773H84.7858C83.9498 9.42773 83.7476 9.63023 83.7476 10.4537V21.2605C83.7476 22.084 83.9498 22.2865 84.7858 22.2865Z" fill="#EFEFEF"/>
<path d="M95.0259 22.2865H95.3765C96.2124 22.2865 96.4147 22.084 96.4147 21.2605V16.5895C96.4147 15.5635 96.745 15.1382 97.9517 15.1382C99.1585 15.1382 99.4888 15.5635 99.4888 16.5895V21.2605C99.4888 22.084 99.6911 22.2865 100.527 22.2865H100.803C101.639 22.2865 101.842 22.084 101.842 21.2605V16.5895C101.842 15.5635 102.158 15.1382 103.419 15.1382C104.68 15.1382 104.923 15.5635 104.923 16.5895V21.2605C104.923 22.084 105.125 22.2865 105.961 22.2865H106.311C107.147 22.2865 107.349 22.084 107.349 21.2605V16.5895C107.349 14.092 106.109 12.877 103.419 12.877C102.179 12.877 101.269 13.2617 100.696 14.0515C100.156 13.2617 99.2326 12.877 97.9517 12.877C95.3562 12.877 93.981 14.1797 93.981 16.5895V21.2605C93.981 22.084 94.1832 22.2865 95.0192 22.2865H95.0259Z" fill="#EFEFEF"/>
<path d="M122.747 10.3458H122.491C121.622 10.3458 121.413 10.582 121.413 11.4123V19.9375C121.413 20.3628 121.359 20.4505 121.136 20.4505C120.968 20.4505 120.86 20.3223 120.806 20.0658L118.878 12.364C118.453 10.6563 117.819 10.123 116.282 10.123C114.449 10.123 113.707 10.8385 113.707 12.9513V21.22C113.707 22.0503 113.909 22.2865 114.786 22.2865H115.042C115.912 22.2865 116.121 22.0503 116.121 21.22V12.7285C116.121 12.2695 116.161 12.175 116.383 12.175C116.606 12.175 116.66 12.2695 116.754 12.688L118.642 20.1873C119.087 21.9355 119.734 22.5025 121.352 22.5025C123.112 22.5025 123.84 21.787 123.84 19.6743V11.4055C123.84 10.5753 123.637 10.339 122.761 10.339L122.747 10.3458Z" fill="#EFEFEF"/>
<path d="M133.601 19.5528V16.0428C133.601 13.7613 132.024 12.8838 129.111 12.8838C128.572 12.8838 128.073 12.9175 127.608 12.9783C126.812 13.1065 126.603 13.309 126.603 14.0988V14.173C126.603 14.983 126.826 15.1653 127.642 15.037C128.194 14.9628 128.734 14.929 129.253 14.929C130.534 14.929 131.181 15.1653 131.181 16.0495V16.7515H129.307C126.806 16.7515 125.545 17.7033 125.545 19.6203C125.545 21.5373 126.772 22.5228 129.57 22.5228C132.367 22.5228 133.594 21.5508 133.594 19.5663L133.601 19.5528ZM127.965 19.5528C127.965 18.871 128.41 18.5403 129.28 18.5403H131.188V19.4245C131.093 20.4168 130.486 20.5248 129.536 20.5113C128.626 20.5315 128.033 20.437 127.958 19.5528H127.965Z" fill="#EFEFEF"/>
<path d="M136.453 22.2865H136.784C137.62 22.2865 137.822 22.084 137.822 21.2605V10.4537C137.822 9.63023 137.62 9.42773 136.784 9.42773H136.453C135.617 9.42773 135.415 9.63023 135.415 10.4537V21.2605C135.415 22.084 135.617 22.2865 136.453 22.2865Z" fill="#EFEFEF"/>
<path d="M141.051 21.4832C141.57 22.1244 141.907 22.2932 142.736 22.2932H143.666C144.502 22.2932 144.576 22.1312 144.057 21.4832L141.219 18.0272C140.997 17.7707 140.889 17.5682 140.889 17.4399C140.889 17.2914 140.997 17.0889 141.239 16.8324L143.666 13.8962C144.185 13.2549 144.131 13.1064 143.296 13.1064H142.365C141.529 13.1064 141.199 13.2549 140.68 13.8962L139.176 15.7322C138.637 16.3937 138.455 16.7582 138.455 17.3657C138.455 17.9732 138.698 18.5807 139.176 19.1679L141.051 21.4832Z" fill="#EFEFEF"/>
<path d="M146.842 22.2865H147.192C148.028 22.2865 148.231 22.084 148.231 21.2605V17.3657C148.231 15.6917 148.992 15.1382 150.233 15.1382C151.271 15.1382 151.79 15.4892 151.79 16.4612V21.2605C151.79 22.084 151.992 22.2865 152.828 22.2865H153.179C154.015 22.2865 154.217 22.084 154.217 21.2605V16.0427C154.217 14.9222 153.9 14.1122 153.294 13.6195C152.68 13.12 151.939 12.8837 151.069 12.8837C149.828 12.8837 148.878 13.2347 148.231 13.93V10.4537C148.231 9.63023 148.028 9.42773 147.192 9.42773H146.842C146.006 9.42773 145.804 9.63023 145.804 10.4537V21.2605C145.804 22.084 146.006 22.2865 146.842 22.2865Z" fill="#EFEFEF"/>
<path d="M160.696 22.5092C161.606 22.5092 162.348 22.435 162.954 22.273C163.77 22.0705 163.939 21.8882 163.939 21.0782V20.8757C163.939 20.0117 163.757 19.8295 162.954 19.9915C162.139 20.1535 161.397 20.248 160.709 20.248C159.004 20.248 158.282 19.8092 158.282 18.8507V18.574H162.995C163.864 18.574 164.107 18.3917 164.202 17.5615C164.222 17.3387 164.235 17.1025 164.235 16.846C164.235 14.2 162.88 12.877 160.177 12.877C157.305 12.877 155.855 14.254 155.855 17.008V18.4795C155.855 21.2942 157.372 22.5025 160.696 22.5025V22.5092ZM158.282 16.3532C158.282 15.415 158.896 14.956 160.103 14.956C161.309 14.956 161.936 15.415 161.936 16.3532V16.63H158.282V16.3532Z" fill="#EFEFEF"/>
<path d="M170.525 22.5092C171.435 22.5092 172.177 22.435 172.783 22.273C173.599 22.0705 173.768 21.8882 173.768 21.0782V20.8757C173.768 20.0117 173.586 19.8295 172.783 19.9915C171.968 20.1535 171.226 20.248 170.539 20.248C168.833 20.248 168.112 19.8092 168.112 18.8507V18.574H172.824C173.694 18.574 173.936 18.3917 174.031 17.5615C174.051 17.3387 174.064 17.1025 174.064 16.846C174.064 14.2 172.709 12.877 170.006 12.877C167.134 12.877 165.685 14.254 165.685 17.008V18.4795C165.685 21.2942 167.201 22.5025 170.525 22.5025V22.5092ZM168.112 16.3532C168.112 15.415 168.725 14.956 169.932 14.956C171.139 14.956 171.765 15.415 171.765 16.3532V16.63H168.112V16.3532Z" fill="#EFEFEF"/>
<path d="M178.46 22.4755C178.703 22.4755 178.885 22.4552 179.019 22.4417C179.518 22.3472 179.646 22.1447 179.646 21.409V21.058C179.646 20.3425 179.518 20.2142 179.019 20.2142H178.925C178.352 20.2142 178.109 19.9172 178.109 18.979V10.4537C178.109 9.63023 177.907 9.42773 177.071 9.42773H176.741C175.905 9.42773 175.703 9.63023 175.703 10.4537V19.5122C175.703 21.517 176.775 22.4687 178.467 22.4687L178.46 22.4755Z" fill="#EFEFEF"/>
<path d="M100.184 42.9077H97.9185V44.8045H100.184V42.9077Z" fill="#EFEFEF"/>
<path d="M96.8868 42.9077H94.6216V44.8045H96.8868V42.9077Z" fill="#EFEFEF"/>
<path d="M109.386 31.0479H107.107V32.9581H109.386V31.0479Z" fill="#EFEFEF"/>
<path d="M118.824 38.7833C118.824 39.4246 118.46 39.7756 117.86 39.7756H113.518C113.518 36.6233 110.936 34.2001 107.909 34.2001C105.914 34.2001 103.716 35.3206 103.662 37.8586H105.779C105.88 36.6368 106.797 36.1778 107.909 36.1778C109.992 36.1778 111.273 37.7303 111.253 39.7756H101.768C100.77 39.7756 100.17 39.1478 100.17 38.1758V35.1383H97.9248V38.4526C97.9248 39.3908 97.4597 39.7688 96.59 39.7688H76.7023C75.7046 39.7688 75.1046 39.1411 75.1046 38.1691V31.2773H72.8731V39.1951C72.8731 41.2403 71.3563 42.5768 69.6439 42.5768C68.0327 42.5768 66.4821 41.0243 66.4821 39.2491C66.4821 37.7303 66.981 36.7246 66.981 36.7246H64.6484C64.3653 37.5953 64.2979 38.1556 64.2979 39.2491C64.2979 42.3811 66.7113 44.8043 69.6372 44.8043C72.0507 44.8043 74.0664 43.4543 74.7945 41.2268C75.2462 41.6386 75.8934 41.9693 76.8237 41.9693H97.2169C98.2484 41.9693 99.1113 41.5103 99.5158 40.8151C99.9473 41.4091 100.682 41.9693 101.896 41.9693H118.055C120.853 41.9693 121.069 39.5933 121.069 38.6551V34.6321H118.824V38.7901V38.7833Z" fill="#EFEFEF"/>
<path d="M120.61 31.2842H118.345V33.1944H120.61V31.2842Z" fill="#EFEFEF"/>
<path d="M177.422 34.6456V39.1141C177.402 39.9039 177.172 40.7274 176.073 40.7274C175.372 40.7274 174.759 40.0996 174.725 39.0129V35.1384H172.494V39.1141C172.473 39.9039 172.244 40.7274 171.145 40.7274C170.444 40.7274 169.831 40.0996 169.797 39.0129V35.1384H167.552V38.7834C167.552 39.4246 167.188 39.7756 166.588 39.7756H161.458C161.727 39.5124 161.842 39.1951 161.842 38.2569V36.0496C161.842 34.5511 160.649 33.3564 159.011 33.3496C157.372 33.3564 156.233 34.4769 156.233 36.0496V39.7756H140.633C139.736 39.7756 139.5 38.9184 139.5 37.9936C139.5 36.0969 138.139 34.0719 135.557 34.0719C133.757 34.0719 132.543 35.0776 131.977 36.3129C131.795 36.5964 131.525 36.7449 131.161 36.7449H129.361C126.563 36.7449 126.348 39.1006 126.348 40.0456V44.8111H128.593V39.9309C128.593 39.3031 128.957 38.9386 129.557 38.9386H130.871C131.222 38.9386 131.451 38.8914 131.687 38.7766C132.004 40.4776 133.332 42.1584 135.55 42.1584C136.784 42.1584 137.714 41.6319 138.395 40.9029C138.894 41.4969 139.676 41.9761 140.741 41.9761H156.22C156.503 43.3464 157.487 44.9799 159.833 44.9799C161.512 44.9799 162.813 44.1024 162.813 42.8671C162.813 42.5836 162.745 42.3069 162.462 41.9761H166.777C168.172 41.9761 168.927 41.3821 169.325 40.6734C170.026 42.0436 170.97 42.3069 172.103 42.3069C172.952 42.3069 174.186 41.7129 174.503 40.9029C175.204 41.8614 175.898 42.3069 177.031 42.3069C179.026 42.3069 179.647 40.7544 179.647 39.1276V34.6591H177.415L177.422 34.6456ZM135.557 40.2549C134.343 40.2549 133.939 39.3166 133.939 37.9936C133.939 36.8259 134.336 35.8674 135.557 35.8674C136.777 35.8674 137.188 36.8259 137.188 37.9936C137.188 39.3099 136.79 40.2549 135.557 40.2549ZM158.397 36.1509C158.397 35.8674 158.633 35.5434 159.011 35.5434C159.429 35.5434 159.678 35.8741 159.678 36.1509V38.7699C159.678 39.3301 159.098 39.9376 158.647 39.9376H158.397V36.1441V36.1509ZM159.948 43.3059C158.68 43.3059 158.35 42.0166 158.316 41.8546H159.745C160.258 41.8884 160.73 42.0706 160.73 42.4486C160.73 42.7591 160.345 43.3059 159.948 43.3059Z" fill="#EFEFEF"/>
</g>
</svg>
