<svg width="180" height="54" viewBox="0 0 180 54" fill="#ffffff" xmlns="http://www.w3.org/2000/svg">
<path d="M42.1413 10.3208C39.7885 7.46551 36.7616 6.85801 34.9885 6.77026H34.6852C34.2874 6.77026 33.9031 6.78376 33.5256 6.81076C33.5189 6.81076 33.5121 6.81076 33.5054 6.81076C30.9099 7.01326 28.8267 7.89751 27.2829 9.45001C24.4043 12.3593 24.2964 16.74 24.2964 17.1045V25.3193C24.2964 6.76351 43.7256 12.8453 43.7256 12.8453C43.2537 11.9678 42.7211 11.124 42.1413 10.3208Z" fill="#4F9D5D"/>
<path d="M34.6854 4.04325H36.3573C32.6225 1.49175 28.1057 0 23.2382 0C18.3708 0 13.854 1.49175 10.1191 4.04325H11.7911C15.5259 4.04325 18.5259 5.16375 20.7034 7.36425C21.9102 8.57925 22.7057 9.9765 23.2382 11.313C23.7708 9.9765 24.5663 8.57925 25.7731 7.36425C27.9506 5.16375 30.9439 4.04325 34.6854 4.04325Z" fill="#7FCE7A"/>
<path d="M12.9844 6.8176C12.9844 6.8176 12.9709 6.8176 12.9642 6.8176C12.5866 6.7906 12.2024 6.7771 11.8046 6.7771H11.5012C9.72146 6.86485 6.70124 7.47235 4.34843 10.3276C3.76865 11.1308 3.23607 11.9746 2.76416 12.8521C2.76416 12.8521 22.1934 6.7771 22.1934 25.3261V17.1114C22.1934 16.7401 22.0855 12.3594 19.2069 9.45685C17.6698 7.90435 15.5799 7.0201 12.9844 6.8176Z" fill="#4F9D5D"/>
<path d="M46.49 23.2132V38.3332C46.49 41.8094 43.1597 44.6242 39.0473 44.6242C34.0451 44.6242 29.7237 41.1209 28.6923 36.2339L26.6563 26.5747C26.1507 24.1582 26.4945 21.6269 27.7282 19.4872C28.2271 18.6299 28.8878 17.7727 29.7709 17.0099C31.8541 15.2212 34.8001 14.3167 38.5282 14.3167C38.5282 14.3167 45.0878 14.4719 46.281 20.3714C46.3754 21.0059 46.4361 21.6539 46.463 22.3019C46.4765 22.5989 46.4833 22.9027 46.4833 23.2064L46.49 23.2132Z" fill="#137054"/>
<path d="M0 23.2132V38.3332C0 41.8094 3.33034 44.6242 7.4427 44.6242C12.4449 44.6242 16.7663 41.1209 17.7978 36.2339L19.8337 26.5747C20.3393 24.1582 19.9955 21.6269 18.7618 19.4872C18.2629 18.6299 17.6022 17.7727 16.7191 17.0099C14.636 15.2212 11.6899 14.3167 7.9618 14.3167C7.9618 14.3167 1.40225 14.4719 0.208989 20.3714C0.114607 21.0059 0.0539326 21.6539 0.0269663 22.3019C0.00674157 22.6057 0 22.9094 0 23.2132Z" fill="#137054"/>
<path d="M23.245 33.7297C23.0023 40.0612 17.5146 42.822 17.5146 47.8372C17.5146 50.9085 20.1978 53.676 23.245 53.676C26.2922 53.676 28.9753 50.9017 28.9753 47.8372C28.9753 42.8287 23.4944 40.0612 23.245 33.7297Z" fill="#4F9D5D"/>
<path d="M65.0832 21.7957C65.9192 22.0319 66.863 22.1467 67.881 22.1467C71.1439 22.1467 72.499 21.0059 72.499 18.8594C72.499 17.3002 71.8113 16.4362 70.254 15.5317L67.7866 14.1007C66.9911 13.6417 66.7686 13.4054 66.7686 12.9599C66.7686 12.2984 67.2675 12.0959 68.5282 12.0959C69.4383 12.0959 70.1933 12.1904 70.8473 12.3929C71.7169 12.6292 71.9394 12.4469 71.9394 11.5627V11.3804C71.9394 10.5569 71.7372 10.3342 70.8473 10.0912C70.1394 9.88869 69.3641 9.79419 68.5282 9.79419C65.508 9.79419 64.2068 10.8202 64.2068 12.8789C64.2068 14.2222 64.8405 15.2482 66.081 15.9637L68.454 17.3407C69.6405 18.0224 69.9372 18.3127 69.9372 18.8459C69.9372 19.5817 69.3978 19.8382 67.9147 19.8382C66.9709 19.8382 66.0405 19.7099 65.0967 19.4669C64.2608 19.2442 64.0181 19.4669 64.0181 20.3309V20.5132C64.0181 21.3367 64.2001 21.5392 65.0765 21.7822L65.0832 21.7957Z" fill="#7FCE7A"/>
<path d="M77.6565 22.1467C80.4542 22.1467 81.6812 21.1747 81.6812 19.1902V15.6802C81.6812 13.3987 80.1037 12.5212 77.1913 12.5212C76.652 12.5212 76.1531 12.555 75.6879 12.6157C74.8924 12.744 74.6834 12.9465 74.6834 13.7362V13.8105C74.6834 14.6205 74.9059 14.8027 75.7216 14.6745C76.2744 14.6002 76.8138 14.5665 77.3329 14.5665C78.6138 14.5665 79.261 14.8027 79.261 15.687V16.389H77.3868C74.8857 16.389 73.625 17.3407 73.625 19.2577C73.625 21.1747 74.852 22.1602 77.6497 22.1602L77.6565 22.1467ZM77.3598 18.1777H79.2677V19.062C79.1733 20.0542 78.5666 20.1622 77.616 20.1487C76.7059 20.169 76.1126 20.0745 76.0385 19.1902C76.0385 18.5085 76.4834 18.1777 77.3531 18.1777H77.3598Z" fill="#7FCE7A"/>
<path d="M84.5328 21.9239H84.8834C85.7193 21.9239 85.9216 21.7214 85.9216 20.8979V17.0032C85.9216 15.3292 86.6834 14.7757 87.9238 14.7757C88.962 14.7757 89.4811 15.1267 89.4811 16.0987V20.8979C89.4811 21.7214 89.6834 21.9239 90.5193 21.9239H90.8699C91.7059 21.9239 91.9081 21.7214 91.9081 20.8979V15.6802C91.9081 14.5597 91.5913 13.7497 90.9845 13.2569C90.371 12.7574 89.6295 12.5212 88.7598 12.5212C87.5193 12.5212 86.5688 12.8722 85.9216 13.5674V10.0912C85.9216 9.26769 85.7193 9.06519 84.8834 9.06519H84.5328C83.6969 9.06519 83.4946 9.26769 83.4946 10.0912V20.8979C83.4946 21.7214 83.6969 21.9239 84.5328 21.9239Z" fill="#7FCE7A"/>
<path d="M94.773 21.9239H95.1235C95.9595 21.9239 96.1617 21.7214 96.1617 20.8979V16.2269C96.1617 15.2009 96.4921 14.7757 97.6988 14.7757C98.9056 14.7757 99.2359 15.2009 99.2359 16.2269V20.8979C99.2359 21.7214 99.4381 21.9239 100.274 21.9239H100.55C101.386 21.9239 101.589 21.7214 101.589 20.8979V16.2269C101.589 15.2009 101.906 14.7757 103.166 14.7757C104.427 14.7757 104.67 15.2009 104.67 16.2269V20.8979C104.67 21.7214 104.872 21.9239 105.708 21.9239H106.058C106.894 21.9239 107.097 21.7214 107.097 20.8979V16.2269C107.097 13.7294 105.856 12.5144 103.166 12.5144C101.926 12.5144 101.016 12.8992 100.443 13.6889C99.9033 12.8992 98.9797 12.5144 97.6988 12.5144C95.1033 12.5144 93.728 13.8172 93.728 16.2269V20.8979C93.728 21.7214 93.9303 21.9239 94.7662 21.9239H94.773Z" fill="#7FCE7A"/>
<path d="M122.495 9.98325H122.238C121.369 9.98325 121.16 10.2195 121.16 11.0497V19.575C121.16 20.0002 121.106 20.088 120.883 20.088C120.715 20.088 120.607 19.9597 120.553 19.7032L118.625 12.0015C118.2 10.2937 117.566 9.7605 116.029 9.7605C114.196 9.7605 113.454 10.476 113.454 12.5887V20.8575C113.454 21.6877 113.656 21.924 114.533 21.924H114.789C115.659 21.924 115.868 21.6877 115.868 20.8575V12.366C115.868 11.907 115.908 11.8125 116.131 11.8125C116.353 11.8125 116.407 11.907 116.501 12.3255L118.389 19.8247C118.834 21.573 119.481 22.14 121.099 22.14C122.859 22.14 123.587 21.4245 123.587 19.3117V11.043C123.587 10.2127 123.384 9.9765 122.508 9.9765L122.495 9.98325Z" fill="#7FCE7A"/>
<path d="M133.348 19.1902V15.6802C133.348 13.3987 131.771 12.5212 128.858 12.5212C128.319 12.5212 127.82 12.555 127.355 12.6157C126.559 12.744 126.35 12.9465 126.35 13.7362V13.8105C126.35 14.6205 126.573 14.8027 127.389 14.6745C127.941 14.6002 128.481 14.5665 129 14.5665C130.281 14.5665 130.928 14.8027 130.928 15.687V16.389H129.054C126.553 16.389 125.292 17.3407 125.292 19.2577C125.292 21.1747 126.519 22.1602 129.317 22.1602C132.114 22.1602 133.341 21.1882 133.341 19.2037L133.348 19.1902ZM127.712 19.1902C127.712 18.5085 128.157 18.1777 129.027 18.1777H130.935V19.062C130.84 20.0542 130.234 20.1622 129.283 20.1487C128.373 20.169 127.78 20.0745 127.705 19.1902H127.712Z" fill="#7FCE7A"/>
<path d="M136.2 21.9239H136.531C137.367 21.9239 137.569 21.7214 137.569 20.8979V10.0912C137.569 9.26769 137.367 9.06519 136.531 9.06519H136.2C135.364 9.06519 135.162 9.26769 135.162 10.0912V20.8979C135.162 21.7214 135.364 21.9239 136.2 21.9239Z" fill="#7FCE7A"/>
<path d="M140.798 21.1206C141.317 21.7619 141.654 21.9306 142.483 21.9306H143.413C144.249 21.9306 144.324 21.7686 143.804 21.1206L140.966 17.6646C140.744 17.4081 140.636 17.2056 140.636 17.0774C140.636 16.9289 140.744 16.7264 140.986 16.4699L143.413 13.5336C143.932 12.8924 143.879 12.7439 143.043 12.7439H142.112C141.276 12.7439 140.946 12.8924 140.427 13.5336L138.924 15.3696C138.384 16.0311 138.202 16.3956 138.202 17.0031C138.202 17.6106 138.445 18.2181 138.924 18.8054L140.798 21.1206Z" fill="#7FCE7A"/>
<path d="M146.589 21.9239H146.94C147.775 21.9239 147.978 21.7214 147.978 20.8979V17.0032C147.978 15.3292 148.74 14.7757 149.98 14.7757C151.018 14.7757 151.537 15.1267 151.537 16.0987V20.8979C151.537 21.7214 151.74 21.9239 152.575 21.9239H152.926C153.762 21.9239 153.964 21.7214 153.964 20.8979V15.6802C153.964 14.5597 153.647 13.7497 153.041 13.2569C152.427 12.7574 151.686 12.5212 150.816 12.5212C149.575 12.5212 148.625 12.8722 147.978 13.5674V10.0912C147.978 9.26769 147.775 9.06519 146.94 9.06519H146.589C145.753 9.06519 145.551 9.26769 145.551 10.0912V20.8979C145.551 21.7214 145.753 21.9239 146.589 21.9239Z" fill="#7FCE7A"/>
<path d="M160.443 22.1467C161.353 22.1467 162.095 22.0724 162.701 21.9104C163.517 21.7079 163.686 21.5257 163.686 20.7157V20.5132C163.686 19.6492 163.504 19.4669 162.701 19.6289C161.886 19.7909 161.144 19.8854 160.456 19.8854C158.751 19.8854 158.029 19.4467 158.029 18.4882V18.2114H162.742C163.612 18.2114 163.854 18.0292 163.949 17.1989C163.969 16.9762 163.982 16.7399 163.982 16.4834C163.982 13.8374 162.627 12.5144 159.924 12.5144C157.052 12.5144 155.603 13.8914 155.603 16.6454V18.1169C155.603 20.9317 157.119 22.1399 160.443 22.1399V22.1467ZM158.029 15.9907C158.029 15.0524 158.643 14.5934 159.85 14.5934C161.056 14.5934 161.683 15.0524 161.683 15.9907V16.2674H158.029V15.9907Z" fill="#7FCE7A"/>
<path d="M170.272 22.1467C171.182 22.1467 171.924 22.0724 172.531 21.9104C173.346 21.7079 173.515 21.5257 173.515 20.7157V20.5132C173.515 19.6492 173.333 19.4669 172.531 19.6289C171.715 19.7909 170.973 19.8854 170.286 19.8854C168.58 19.8854 167.859 19.4467 167.859 18.4882V18.2114H172.571C173.441 18.2114 173.683 18.0292 173.778 17.1989C173.798 16.9762 173.811 16.7399 173.811 16.4834C173.811 13.8374 172.456 12.5144 169.753 12.5144C166.881 12.5144 165.432 13.8914 165.432 16.6454V18.1169C165.432 20.9317 166.949 22.1399 170.272 22.1399V22.1467ZM167.859 15.9907C167.859 15.0524 168.472 14.5934 169.679 14.5934C170.886 14.5934 171.513 15.0524 171.513 15.9907V16.2674H167.859V15.9907Z" fill="#7FCE7A"/>
<path d="M178.207 22.1129C178.45 22.1129 178.632 22.0927 178.767 22.0792C179.265 21.9847 179.394 21.7822 179.394 21.0464V20.6954C179.394 19.9799 179.265 19.8517 178.767 19.8517H178.672C178.099 19.8517 177.856 19.5547 177.856 18.6164V10.0912C177.856 9.26769 177.654 9.06519 176.818 9.06519H176.488C175.652 9.06519 175.45 9.26769 175.45 10.0912V19.1497C175.45 21.1544 176.522 22.1062 178.214 22.1062L178.207 22.1129Z" fill="#7FCE7A"/>
<path d="M99.9307 42.5454H97.6655V44.4422H99.9307V42.5454Z" fill="#137054"/>
<path d="M96.6338 42.5454H94.3687V44.4422H96.6338V42.5454Z" fill="#137054"/>
<path d="M109.133 30.6855H106.854V32.5958H109.133V30.6855Z" fill="#137054"/>
<path d="M118.571 38.421C118.571 39.0623 118.207 39.4133 117.607 39.4133H113.265C113.265 36.261 110.683 33.8378 107.656 33.8378C105.661 33.8378 103.463 34.9583 103.409 37.4963H105.526C105.627 36.2745 106.544 35.8155 107.656 35.8155C109.739 35.8155 111.02 37.368 111 39.4133H101.515C100.517 39.4133 99.9168 38.7855 99.9168 37.8135V34.776H97.6719V38.0903C97.6719 39.0285 97.2067 39.4065 96.3371 39.4065H76.4494C75.4517 39.4065 74.8517 38.7788 74.8517 37.8068V30.915H72.6202V38.8328C72.6202 40.878 71.1033 42.2145 69.391 42.2145C67.7798 42.2145 66.2292 40.662 66.2292 38.8868C66.2292 37.368 66.7281 36.3623 66.7281 36.3623H64.3955C64.1123 37.233 64.0449 37.7933 64.0449 38.8868C64.0449 42.0188 66.4584 44.442 69.3842 44.442C71.7977 44.442 73.8135 43.092 74.5416 40.8645C74.9932 41.2763 75.6404 41.607 76.5708 41.607H96.964C97.9955 41.607 98.8584 41.148 99.2629 40.4528C99.6944 41.0468 100.429 41.607 101.643 41.607H117.802C120.6 41.607 120.816 39.231 120.816 38.2928V34.2698H118.571V38.4278V38.421Z" fill="#137054"/>
<path d="M120.357 30.9219H118.092V32.8321H120.357V30.9219Z" fill="#137054"/>
<path d="M177.169 34.2833V38.7518C177.149 39.5416 176.919 40.3651 175.821 40.3651C175.119 40.3651 174.506 39.7373 174.472 38.6506V34.7761H172.241V38.7518C172.221 39.5416 171.991 40.3651 170.892 40.3651C170.191 40.3651 169.578 39.7373 169.544 38.6506V34.7761H167.299V38.4211C167.299 39.0623 166.935 39.4133 166.335 39.4133H161.205C161.475 39.1501 161.589 38.8328 161.589 37.8946V35.6873C161.589 34.1888 160.396 32.9941 158.758 32.9873C157.119 32.9941 155.98 34.1146 155.98 35.6873V39.4133H140.38C139.483 39.4133 139.248 38.5561 139.248 37.6313C139.248 35.7346 137.886 33.7096 135.304 33.7096C133.504 33.7096 132.29 34.7153 131.724 35.9506C131.542 36.2341 131.272 36.3826 130.908 36.3826H129.108C126.31 36.3826 126.095 38.7383 126.095 39.6833V44.4488H128.34V39.5686C128.34 38.9408 128.704 38.5763 129.304 38.5763H130.618C130.969 38.5763 131.198 38.5291 131.434 38.4143C131.751 40.1153 133.079 41.7961 135.297 41.7961C136.531 41.7961 137.461 41.2696 138.142 40.5406C138.641 41.1346 139.423 41.6138 140.488 41.6138H155.967C156.25 42.9841 157.234 44.6176 159.58 44.6176C161.259 44.6176 162.56 43.7401 162.56 42.5048C162.56 42.2213 162.492 41.9446 162.209 41.6138H166.524C167.919 41.6138 168.675 41.0198 169.072 40.3111C169.773 41.6813 170.717 41.9446 171.85 41.9446C172.699 41.9446 173.933 41.3506 174.25 40.5406C174.951 41.4991 175.645 41.9446 176.778 41.9446C178.773 41.9446 179.394 40.3921 179.394 38.7653V34.2968H177.162L177.169 34.2833ZM135.304 39.8926C134.09 39.8926 133.686 38.9543 133.686 37.6313C133.686 36.4636 134.083 35.5051 135.304 35.5051C136.524 35.5051 136.935 36.4636 136.935 37.6313C136.935 38.9476 136.537 39.8926 135.304 39.8926ZM158.144 35.7886C158.144 35.5051 158.38 35.1811 158.758 35.1811C159.176 35.1811 159.425 35.5118 159.425 35.7886V38.4076C159.425 38.9678 158.845 39.5753 158.394 39.5753H158.144V35.7818V35.7886ZM159.695 42.9436C158.427 42.9436 158.097 41.6543 158.063 41.4923H159.492C160.005 41.5261 160.477 41.7083 160.477 42.0863C160.477 42.3968 160.092 42.9436 159.695 42.9436Z" fill="#137054"/>
</svg>
