<svg width="36" height="21" viewBox="0 0 36 21" fill="none" xmlns="http://www.w3.org/2000/svg">
<path d="M32.05 0H7.82C6.1 0 4.69 1.41 4.69 3.13V4.3C4.69 4.73 5.04 5.08 5.47 5.08C5.9 5.08 6.25 4.73 6.25 4.3V3.13C6.25 2.97 6.29 2.82 6.33 2.66L15.08 10.16L6.33 17.66C6.29 17.5 6.25 17.35 6.25 17.19V16.02C6.25 15.59 5.9 15.24 5.47 15.24C5.04 15.24 4.69 15.59 4.69 16.02V17.19C4.69 18.91 6.1 20.32 7.82 20.32H32.05C33.77 20.32 35.18 18.91 35.18 17.19V3.13C35.18 1.41 33.77 0 32.05 0ZM7.5 1.6C7.58 1.56 7.7 1.56 7.81 1.56H32.04C32.16 1.56 32.27 1.56 32.35 1.6L20.43 11.8C20.12 12.03 19.73 12.03 19.41 11.8L7.5 1.6ZM32.04 18.76H7.82C7.7 18.76 7.59 18.76 7.51 18.72L16.3 11.18L18.41 13.02C18.84 13.41 19.39 13.61 19.93 13.61C20.47 13.61 21.02 13.41 21.45 13.02L23.56 11.18L32.35 18.72C32.27 18.76 32.15 18.76 32.04 18.76ZM33.6 17.2C33.6 17.36 33.56 17.51 33.52 17.67L24.77 10.17L33.52 2.67C33.56 2.83 33.6 2.98 33.6 3.14V17.21V17.2ZM2.34 8.21C2.34 7.78 2.69 7.43 3.12 7.43H7.81C8.24 7.43 8.59 7.78 8.59 8.21C8.59 8.64 8.24 8.99 7.81 8.99H3.13C2.7 8.99 2.35 8.64 2.35 8.21H2.34ZM7.81 12.9H0.78C0.35 12.9 0 12.55 0 12.12C0 11.69 0.35 11.34 0.78 11.34H7.81C8.24 11.34 8.59 11.69 8.59 12.12C8.59 12.55 8.24 12.9 7.81 12.9Z" fill="#137054"/>
</svg>
