<svg width="24" height="24" viewBox="0 0 24 24" fill="none" xmlns="http://www.w3.org/2000/svg">
<path d="M23.0208 17.3925L19.7108 14.0825C18.5308 12.9025 16.5208 13.3725 16.0508 14.9125C15.7008 15.9725 14.5108 16.5625 13.4508 16.3325C11.0908 15.7425 7.90083 12.6725 7.31083 10.1925C6.96083 9.1325 7.66083 7.9525 8.73083 7.5925C10.2708 7.1225 10.7408 5.1125 9.56083 3.9325L6.25083 0.6225C5.31083 -0.2075 3.89083 -0.2075 3.07083 0.6225L0.820831 2.8625C-1.41917 5.2225 1.06083 11.4825 6.61083 17.0325C12.1608 22.5825 18.4208 25.1825 20.7808 22.8225L23.0208 20.5825C23.8508 19.6425 23.8508 18.2225 23.0208 17.3925Z" fill="#137054"/>
</svg>
