<svg width="46" height="46" viewBox="0 0 46 46" fill="none" xmlns="http://www.w3.org/2000/svg">
<path d="M20.233 19.0442C22.6477 20.3101 25.0422 21.5658 27.4671 22.8419C25.0422 24.1078 22.6477 25.3532 20.233 26.6191V19.0442ZM45.253 23.0869C45.253 35.3884 35.3403 45.3623 23.1043 45.3623C10.8683 45.3623 0.96582 35.3884 0.96582 23.0869C0.96582 10.7854 10.8784 0.80127 23.1043 0.80127C35.3302 0.80127 45.253 10.7752 45.253 23.0869ZM34.1228 17.0127C33.7982 16.1654 33.1995 15.6141 32.3574 15.3078C30.9268 14.7872 18.5183 14.726 14.5005 15.1649C13.7193 15.2466 13.0699 15.6039 12.5525 16.2062C11.0712 17.9723 11.2944 26.9254 12.0655 29.0692C12.3902 29.9471 12.9786 30.529 13.8613 30.8149C15.8297 31.4682 31.2515 31.4784 32.743 30.6924C33.301 30.3963 33.7373 29.988 34.0011 29.4061C34.9954 27.2827 34.965 19.228 34.1228 17.0127Z" fill="white"/>
</svg>
